# Blender 4.1.1
# www.blender.org
mtllib aslkdjf.mtl
o Icosphere
v 0.000000 0.000000 0.000000
v 0.723607 0.552781 0.525725
v -0.276388 0.552780 0.850649
v -0.894426 0.552784 0.000000
v -0.276388 0.552780 -0.850649
v 0.723607 0.552781 -0.525725
v 0.276388 1.447220 0.850649
v -0.723607 1.447219 0.525725
v -0.723607 1.447219 -0.525725
v 0.276388 1.447220 -0.850649
v 0.894426 1.447216 0.000000
v 0.000000 2.000000 0.000000
v -0.162456 0.149346 0.499995
v 0.425323 0.149346 0.309011
v 0.262869 0.474262 0.809012
v 0.850648 0.474264 0.000000
v 0.425323 0.149346 -0.309011
v -0.525730 0.149348 0.000000
v -0.688189 0.474264 0.499997
v -0.162456 0.149346 -0.499995
v -0.688189 0.474264 -0.499997
v 0.262869 0.474262 -0.809012
v 0.951058 1.000000 0.309013
v 0.951058 1.000000 -0.309013
v 0.000000 1.000000 1.000000
v 0.587786 1.000000 0.809017
v -0.951058 1.000000 0.309013
v -0.587786 1.000000 0.809017
v -0.587786 1.000000 -0.809017
v -0.951058 1.000000 -0.309013
v 0.587786 1.000000 -0.809017
v 0.000000 1.000000 -1.000000
v 0.688189 1.525736 0.499997
v -0.262869 1.525738 0.809012
v -0.850648 1.525736 0.000000
v -0.262869 1.525738 -0.809012
v 0.688189 1.525736 -0.499997
v 0.162456 1.850654 0.499995
v 0.525730 1.850652 0.000000
v -0.425323 1.850654 0.309011
v -0.425323 1.850654 -0.309011
v 0.162456 1.850654 -0.499995
vn 0.1024 -0.9435 0.3151
vn 0.7002 -0.6617 0.2680
vn -0.2680 -0.9435 0.1947
vn -0.2680 -0.9435 -0.1947
vn 0.1024 -0.9435 -0.3151
vn 0.9050 -0.3304 0.2680
vn 0.0247 -0.3304 0.9435
vn -0.8897 -0.3304 0.3151
vn -0.5746 -0.3304 -0.7488
vn 0.5346 -0.3304 -0.7779
vn 0.8026 -0.1256 0.5831
vn -0.3066 -0.1256 0.9435
vn -0.9921 -0.1256 -0.0000
vn -0.3066 -0.1256 -0.9435
vn 0.8026 -0.1256 -0.5831
vn 0.4089 0.6617 0.6284
vn -0.4713 0.6617 0.5831
vn -0.7002 0.6617 -0.2680
vn 0.0385 0.6617 -0.7488
vn 0.7240 0.6617 -0.1947
vn 0.2680 0.9435 -0.1947
vn 0.4911 0.7947 -0.3568
vn 0.4089 0.6617 -0.6284
vn -0.1024 0.9435 -0.3151
vn -0.1876 0.7947 -0.5773
vn -0.4713 0.6617 -0.5831
vn -0.3313 0.9435 -0.0000
vn -0.6071 0.7947 -0.0000
vn -0.7002 0.6617 0.2680
vn -0.1024 0.9435 0.3151
vn -0.1876 0.7947 0.5773
vn 0.0385 0.6617 0.7488
vn 0.2680 0.9435 0.1947
vn 0.4911 0.7947 0.3568
vn 0.7240 0.6617 0.1947
vn 0.8897 0.3304 -0.3151
vn 0.7947 0.1876 -0.5773
vn 0.5746 0.3304 -0.7488
vn -0.0247 0.3304 -0.9435
vn -0.3035 0.1876 -0.9342
vn -0.5346 0.3304 -0.7779
vn -0.9050 0.3304 -0.2680
vn -0.9822 0.1876 -0.0000
vn -0.9050 0.3304 0.2680
vn -0.5346 0.3304 0.7779
vn -0.3035 0.1876 0.9342
vn -0.0247 0.3304 0.9435
vn 0.5746 0.3304 0.7488
vn 0.7947 0.1876 0.5773
vn 0.8897 0.3304 0.3151
vn 0.3066 0.1256 -0.9435
vn 0.3035 -0.1876 -0.9342
vn 0.0247 -0.3304 -0.9435
vn -0.8026 0.1256 -0.5831
vn -0.7947 -0.1876 -0.5773
vn -0.8897 -0.3304 -0.3151
vn -0.8026 0.1256 0.5831
vn -0.7947 -0.1876 0.5773
vn -0.5746 -0.3304 0.7488
vn 0.3066 0.1256 0.9435
vn 0.3035 -0.1876 0.9342
vn 0.5346 -0.3304 0.7779
vn 0.9921 0.1256 -0.0000
vn 0.9822 -0.1876 -0.0000
vn 0.9050 -0.3304 -0.2680
vn 0.4713 -0.6617 -0.5831
vn 0.1876 -0.7947 -0.5773
vn -0.0385 -0.6617 -0.7488
vn -0.4089 -0.6617 -0.6284
vn -0.4911 -0.7947 -0.3568
vn -0.7240 -0.6617 -0.1947
vn -0.7240 -0.6617 0.1947
vn -0.4911 -0.7947 0.3568
vn -0.4089 -0.6617 0.6284
vn 0.7002 -0.6617 -0.2680
vn 0.6071 -0.7947 -0.0000
vn 0.3313 -0.9435 -0.0000
vn -0.0385 -0.6617 0.7488
vn 0.1876 -0.7947 0.5773
vn 0.4713 -0.6617 0.5831
vt 0.181819 0.000000
vt 0.227273 0.078731
vt 0.136365 0.078731
vt 0.272728 0.157461
vt 0.318182 0.078731
vt 0.363637 0.157461
vt 0.909091 0.000000
vt 0.954545 0.078731
vt 0.863636 0.078731
vt 0.727273 0.000000
vt 0.772727 0.078731
vt 0.681818 0.078731
vt 0.545455 0.000000
vt 0.590909 0.078731
vt 0.500000 0.078731
vt 0.318182 0.236191
vt 0.090910 0.157461
vt 0.181819 0.157461
vt 0.136365 0.236191
vt 0.818182 0.157461
vt 0.909091 0.157461
vt 0.863636 0.236191
vt 0.636364 0.157461
vt 0.727273 0.157461
vt 0.681818 0.236191
vt 0.454546 0.157461
vt 0.545455 0.157461
vt 0.500000 0.236191
vt 0.227273 0.236191
vt 0.045455 0.236191
vt 0.772727 0.236191
vt 0.590909 0.236191
vt 0.409092 0.236191
vt 0.181819 0.314921
vt 0.272728 0.314921
vt 0.227273 0.393651
vt 0.000000 0.314921
vt 0.090910 0.314921
vt 0.045455 0.393651
vt 0.727273 0.314921
vt 0.818182 0.314921
vt 0.772727 0.393651
vt 0.545455 0.314921
vt 0.636364 0.314921
vt 0.590909 0.393651
vt 0.363637 0.314921
vt 0.454546 0.314921
vt 0.409092 0.393651
vt 0.500000 0.393651
vt 0.454546 0.472382
vt 0.681818 0.393651
vt 0.636364 0.472382
vt 0.863636 0.393651
vt 0.818182 0.472382
vt 0.909091 0.314921
vt 0.136365 0.393651
vt 0.090910 0.472382
vt 0.318182 0.393651
vt 0.272728 0.472382
vt 0.954545 0.236191
vt 1.000000 0.157461
vt 0.409092 0.078731
vt 0.363637 0.000000
s 0
f 1/1/1 14/2/1 13/3/1
f 2/4/2 14/5/2 16/6/2
f 1/7/3 13/8/3 18/9/3
f 1/10/4 18/11/4 20/12/4
f 1/13/5 20/14/5 17/15/5
f 2/4/6 16/6/6 23/16/6
f 3/17/7 15/18/7 25/19/7
f 4/20/8 19/21/8 27/22/8
f 5/23/9 21/24/9 29/25/9
f 6/26/10 22/27/10 31/28/10
f 2/4/11 23/16/11 26/29/11
f 3/17/12 25/19/12 28/30/12
f 4/20/13 27/22/13 30/31/13
f 5/23/14 29/25/14 32/32/14
f 6/26/15 31/28/15 24/33/15
f 7/34/16 33/35/16 38/36/16
f 8/37/17 34/38/17 40/39/17
f 9/40/18 35/41/18 41/42/18
f 10/43/19 36/44/19 42/45/19
f 11/46/20 37/47/20 39/48/20
f 39/48/21 42/49/21 12/50/21
f 39/48/22 37/47/22 42/49/22
f 37/47/23 10/43/23 42/49/23
f 42/45/24 41/51/24 12/52/24
f 42/45/25 36/44/25 41/51/25
f 36/44/26 9/40/26 41/51/26
f 41/42/27 40/53/27 12/54/27
f 41/42/28 35/41/28 40/53/28
f 35/41/29 8/55/29 40/53/29
f 40/39/30 38/56/30 12/57/30
f 40/39/31 34/38/31 38/56/31
f 34/38/32 7/34/32 38/56/32
f 38/36/33 39/58/33 12/59/33
f 38/36/34 33/35/34 39/58/34
f 33/35/35 11/46/35 39/58/35
f 24/33/36 37/47/36 11/46/36
f 24/33/37 31/28/37 37/47/37
f 31/28/38 10/43/38 37/47/38
f 32/32/39 36/44/39 10/43/39
f 32/32/40 29/25/40 36/44/40
f 29/25/41 9/40/41 36/44/41
f 30/31/42 35/41/42 9/40/42
f 30/31/43 27/22/43 35/41/43
f 27/22/44 8/55/44 35/41/44
f 28/30/45 34/38/45 8/37/45
f 28/30/46 25/19/46 34/38/46
f 25/19/47 7/34/47 34/38/47
f 26/29/48 33/35/48 7/34/48
f 26/29/49 23/16/49 33/35/49
f 23/16/50 11/46/50 33/35/50
f 31/28/51 32/32/51 10/43/51
f 31/28/52 22/27/52 32/32/52
f 22/27/53 5/23/53 32/32/53
f 29/25/54 30/31/54 9/40/54
f 29/25/55 21/24/55 30/31/55
f 21/24/56 4/20/56 30/31/56
f 27/22/57 28/60/57 8/55/57
f 27/22/58 19/21/58 28/60/58
f 19/21/59 3/61/59 28/60/59
f 25/19/60 26/29/60 7/34/60
f 25/19/61 15/18/61 26/29/61
f 15/18/62 2/4/62 26/29/62
f 23/16/63 24/33/63 11/46/63
f 23/16/64 16/6/64 24/33/64
f 16/6/65 6/26/65 24/33/65
f 17/15/66 22/27/66 6/26/66
f 17/15/67 20/14/67 22/27/67
f 20/14/68 5/23/68 22/27/68
f 20/12/69 21/24/69 5/23/69
f 20/12/70 18/11/70 21/24/70
f 18/11/71 4/20/71 21/24/71
f 18/9/72 19/21/72 4/20/72
f 18/9/73 13/8/73 19/21/73
f 13/8/74 3/61/74 19/21/74
f 16/6/75 17/62/75 6/26/75
f 16/6/76 14/5/76 17/62/76
f 14/5/77 1/63/77 17/62/77
f 13/3/78 15/18/78 3/17/78
f 13/3/79 14/2/79 15/18/79
f 14/2/80 2/4/80 15/18/80
o Icosphere.001
v -1.155291 0.420444 0.000000
v -0.859765 0.584630 0.157716
v -1.149539 0.662274 0.255192
v -1.328633 0.710262 0.000000
v -1.149539 0.662274 -0.255192
v -0.859765 0.584630 -0.157716
v -0.850461 1.137726 0.255192
v -1.140234 1.215370 0.157716
v -1.140234 1.215370 -0.157716
v -0.850461 1.137726 -0.255192
v -0.671367 1.089738 -0.000000
v -0.844709 1.479555 -0.000000
vn 0.0366 -0.7258 0.6870
vn 0.4857 -0.8742 -0.0000
vn -0.7658 -0.4580 0.4513
vn -0.7658 -0.4580 -0.4513
vn 0.0366 -0.7258 -0.6870
vn 0.9369 -0.3495 -0.0000
vn 0.2725 -0.1714 0.9467
vn -0.8025 0.1166 0.5851
vn -0.8025 0.1166 -0.5851
vn 0.2725 -0.1714 -0.9467
vn 0.8025 -0.1166 0.5851
vn -0.2725 0.1714 0.9467
vn -0.9369 0.3495 -0.0000
vn -0.2725 0.1714 -0.9467
vn 0.8025 -0.1166 -0.5851
vn 0.7956 0.3538 0.4918
vn -0.1080 0.5959 0.7958
vn -0.6665 0.7455 -0.0000
vn -0.1080 0.5959 -0.7958
vn 0.7956 0.3538 -0.4918
vt 0.181819 0.000000
vt 0.272728 0.157461
vt 0.090910 0.157461
vt 0.363637 0.000000
vt 0.454546 0.157461
vt 0.909091 0.000000
vt 1.000000 0.157461
vt 0.818182 0.157461
vt 0.727273 0.000000
vt 0.636364 0.157461
vt 0.545455 0.000000
vt 0.363637 0.314921
vt 0.181819 0.314921
vt 0.909091 0.314921
vt 0.727273 0.314921
vt 0.545455 0.314921
vt 0.000000 0.314921
vt 0.272728 0.472382
vt 0.090910 0.472382
vt 0.818182 0.472382
vt 0.636364 0.472382
vt 0.454546 0.472382
s 0
f 43/64/81 44/65/81 45/66/81
f 44/65/82 43/67/82 48/68/82
f 43/69/83 45/70/83 46/71/83
f 43/72/84 46/71/84 47/73/84
f 43/74/85 47/73/85 48/68/85
f 44/65/86 48/68/86 53/75/86
f 45/66/87 44/65/87 49/76/87
f 46/71/88 45/70/88 50/77/88
f 47/73/89 46/71/89 51/78/89
f 48/68/90 47/73/90 52/79/90
f 44/65/91 53/75/91 49/76/91
f 45/66/92 49/76/92 50/80/92
f 46/71/93 50/77/93 51/78/93
f 47/73/94 51/78/94 52/79/94
f 48/68/95 52/79/95 53/75/95
f 49/76/96 53/75/96 54/81/96
f 50/80/97 49/76/97 54/82/97
f 51/78/98 50/77/98 54/83/98
f 52/79/99 51/78/99 54/84/99
f 53/75/100 52/79/100 54/85/100
o Icosphere.002
v 1.155292 0.420444 0.000000
v 1.279132 0.696998 0.157716
v 0.989359 0.619354 0.255192
v 0.810264 0.571366 -0.000000
v 0.989359 0.619354 -0.255192
v 1.279132 0.696998 -0.157716
v 1.010642 1.180646 0.255192
v 0.720868 1.103001 0.157716
v 0.720868 1.103001 -0.157716
v 1.010642 1.180646 -0.255192
v 1.189736 1.228634 0.000000
v 0.844709 1.479555 -0.000000
vn 0.3950 -0.5822 0.7106
vn 0.9127 -0.4087 -0.0000
vn -0.3650 -0.8344 0.4130
vn -0.3650 -0.8344 -0.4130
vn 0.3950 -0.5822 -0.7106
vn 0.9862 0.1658 -0.0000
vn 0.3217 -0.0122 0.9467
vn -0.7533 -0.3003 0.5851
vn -0.7533 -0.3003 -0.5851
vn 0.3217 -0.0122 -0.9467
vn 0.7533 0.3003 0.5851
vn -0.3217 0.0122 0.9467
vn -0.9862 -0.1658 -0.0000
vn -0.3217 0.0122 -0.9467
vn 0.7533 0.3003 -0.5851
vn 0.5121 0.7042 0.4918
vn -0.3915 0.4621 0.7958
vn -0.9499 0.3124 -0.0000
vn -0.3915 0.4621 -0.7958
vn 0.5121 0.7042 -0.4918
vt 0.181819 0.000000
vt 0.272728 0.157461
vt 0.090910 0.157461
vt 0.363637 0.000000
vt 0.454546 0.157461
vt 0.909091 0.000000
vt 1.000000 0.157461
vt 0.818182 0.157461
vt 0.727273 0.000000
vt 0.636364 0.157461
vt 0.545455 0.000000
vt 0.363637 0.314921
vt 0.181819 0.314921
vt 0.909091 0.314921
vt 0.727273 0.314921
vt 0.545455 0.314921
vt 0.000000 0.314921
vt 0.272728 0.472382
vt 0.090910 0.472382
vt 0.818182 0.472382
vt 0.636364 0.472382
vt 0.454546 0.472382
s 0
f 55/86/101 56/87/101 57/88/101
f 56/87/102 55/89/102 60/90/102
f 55/91/103 57/92/103 58/93/103
f 55/94/104 58/93/104 59/95/104
f 55/96/105 59/95/105 60/90/105
f 56/87/106 60/90/106 65/97/106
f 57/88/107 56/87/107 61/98/107
f 58/93/108 57/92/108 62/99/108
f 59/95/109 58/93/109 63/100/109
f 60/90/110 59/95/110 64/101/110
f 56/87/111 65/97/111 61/98/111
f 57/88/112 61/98/112 62/102/112
f 58/93/113 62/99/113 63/100/113
f 59/95/114 63/100/114 64/101/114
f 60/90/115 64/101/115 65/97/115
f 61/98/116 65/97/116 66/103/116
f 62/102/117 61/98/117 66/104/117
f 63/100/118 62/99/118 66/105/118
f 64/101/119 63/100/119 66/106/119
f 65/97/120 64/101/120 66/107/120
o Icosphere.003
v 0.268448 -0.134164 -0.065597
v 0.588443 -0.134164 0.116358
v 0.786216 -0.134164 -0.200000
v 0.588443 -0.134164 -0.676358
v 0.268448 -0.134164 -0.494403
v 0.411557 0.134164 0.116358
v 0.731552 0.134164 -0.065597
v 0.731552 0.134164 -0.494403
v 0.411557 0.134164 -0.676358
v 0.213784 0.134164 -0.200000
v 0.500000 0.300000 -0.200000
vn 0.9799 0.1996 -0.0000
vn 0.4700 0.3098 -0.8265
vn -0.8443 0.0924 -0.5278
vn -0.8996 0.2265 0.3735
vn 0.4700 0.3098 0.8265
vn 0.8443 -0.0924 -0.5278
vn -0.4700 -0.3098 -0.8265
vn -0.9799 -0.1996 -0.0000
vn -0.4700 -0.3098 0.8265
vn 0.8996 -0.2265 0.3735
vn 0.4784 -0.8257 -0.2991
vn -0.2880 -0.8127 -0.5065
vn -0.5823 -0.8130 -0.0000
vn -0.2020 -0.9127 0.3552
vn 0.4908 -0.8471 0.2038
vn -0.0000 1.0000 -0.0000
vt 0.272728 0.157461
vt 0.454546 0.157461
vt 0.363637 0.314921
vt 0.090910 0.157461
vt 0.181819 0.314921
vt 0.818182 0.157461
vt 1.000000 0.157461
vt 0.909091 0.314921
vt 0.636364 0.157461
vt 0.727273 0.314921
vt 0.545455 0.314921
vt 0.000000 0.314921
vt 0.272728 0.472382
vt 0.090910 0.472382
vt 0.818182 0.472382
vt 0.636364 0.472382
vt 0.454546 0.472382
s 0
f 67/108/121 71/109/121 76/110/121
f 68/111/122 67/108/122 72/112/122
f 69/113/123 68/114/123 73/115/123
f 70/116/124 69/113/124 74/117/124
f 71/109/125 70/116/125 75/118/125
f 67/108/126 76/110/126 72/112/126
f 68/111/127 72/112/127 73/119/127
f 69/113/128 73/115/128 74/117/128
f 70/116/129 74/117/129 75/118/129
f 71/109/130 75/118/130 76/110/130
f 72/112/131 76/110/131 77/120/131
f 73/119/132 72/112/132 77/121/132
f 74/117/133 73/115/133 77/122/133
f 75/118/134 74/117/134 77/123/134
f 76/110/135 75/118/135 77/124/135
f 67/108/136 68/114/136 69/113/136 70/116/136 71/109/136
o Icosphere.004
v -0.268448 -0.134164 -0.065597
v -0.588443 -0.134164 0.116358
v -0.786216 -0.134164 -0.200000
v -0.588443 -0.134164 -0.676358
v -0.268448 -0.134164 -0.494403
v -0.411557 0.134164 0.116358
v -0.731552 0.134164 -0.065597
v -0.731552 0.134164 -0.494403
v -0.411557 0.134164 -0.676358
v -0.213784 0.134164 -0.200000
v -0.500000 0.300000 -0.200000
vn 0.9799 -0.1996 -0.0000
vn 0.4700 -0.3098 0.8265
vn -0.8443 -0.0924 0.5278
vn -0.8996 -0.2265 -0.3735
vn 0.4700 -0.3098 -0.8265
vn 0.8443 0.0924 0.5278
vn -0.4700 0.3098 0.8265
vn -0.9799 0.1996 -0.0000
vn -0.4700 0.3098 -0.8265
vn 0.8996 0.2265 -0.3735
vn 0.4784 0.8257 0.2991
vn -0.2880 0.8127 0.5065
vn -0.5823 0.8130 -0.0000
vn -0.2020 0.9127 -0.3552
vn 0.4908 0.8471 -0.2038
vn -0.0000 -1.0000 -0.0000
vt 0.272728 0.157461
vt 0.454546 0.157461
vt 0.363637 0.314921
vt 0.090910 0.157461
vt 0.181819 0.314921
vt 0.818182 0.157461
vt 1.000000 0.157461
vt 0.909091 0.314921
vt 0.636364 0.157461
vt 0.727273 0.314921
vt 0.545455 0.314921
vt 0.000000 0.314921
vt 0.272728 0.472382
vt 0.090910 0.472382
vt 0.818182 0.472382
vt 0.636364 0.472382
vt 0.454546 0.472382
s 0
f 78/125/137 82/126/137 87/127/137
f 79/128/138 78/125/138 83/129/138
f 80/130/139 79/131/139 84/132/139
f 81/133/140 80/130/140 85/134/140
f 82/126/141 81/133/141 86/135/141
f 78/125/142 87/127/142 83/129/142
f 79/128/143 83/129/143 84/136/143
f 80/130/144 84/132/144 85/134/144
f 81/133/145 85/134/145 86/135/145
f 82/126/146 86/135/146 87/127/146
f 83/129/147 87/127/147 88/137/147
f 84/136/148 83/129/148 88/138/148
f 85/134/149 84/132/149 88/139/149
f 86/135/150 85/134/150 88/140/150
f 87/127/151 86/135/151 88/141/151
f 78/125/152 79/131/152 80/130/152 81/133/152 82/126/152
