# This file uses centimeters as units for non-parametric coordinates.

v -7.545535 0.000000 5.396982
v 7.545536 0.000000 5.396982
v -7.545535 5.858915 5.396982
v 7.545536 5.858915 5.396982
v -7.545535 5.858915 -5.396982
v 7.545536 5.858915 -5.396982
v -7.545535 0.000000 -5.396982
v 7.545536 0.000000 -5.396982
v 7.545536 7.644605 0.000000
v -7.545535 7.644605 0.000000
v -7.545535 0.000000 0.000000
v 7.545536 0.000000 0.000000
v 7.545536 7.341630 0.000000
v 7.545536 5.626712 5.396982
v -7.545535 5.626712 5.396982
v -7.545535 7.341630 0.000000
v -7.545535 5.626712 -5.396982
v 7.545536 5.626712 -5.396982
v 8.021952 7.341630 0.000000
v 7.783744 5.626712 5.635190
v 8.021952 7.644605 0.000000
v 7.783744 5.858915 5.635190
v -7.783745 5.626712 5.635190
v -7.783745 5.858915 5.635190
v -8.021954 7.341630 0.000000
v -8.021954 7.644605 0.000000
v -7.783745 5.626712 -5.635190
v -7.783745 5.858915 -5.635190
v 7.783744 5.858915 -5.635190
v 7.783744 5.626712 -5.635190
v 7.545536 3.482974 0.000000
v 7.545536 3.482964 5.396982
v -7.545535 3.482964 5.396982
v -7.545535 3.482974 0.000000
v -7.545535 3.482964 -5.396982
v 7.545536 3.482964 -5.396982
v 7.545536 3.302695 0.000000
v 7.545536 3.302686 5.396982
v -7.545535 3.302686 5.396982
v -7.545535 3.302695 0.000000
v -7.545535 3.302686 -5.396982
v 7.545536 3.302686 -5.396982
v 7.906529 3.302695 0.000000
v 7.906529 3.302686 5.396982
v 7.906529 3.482974 0.000000
v 7.906529 3.482964 5.396982
v 7.906529 3.482964 -5.396982
v 7.906529 3.302686 -5.396982
v -7.906529 3.302686 5.396982
v -7.906529 3.302695 0.000000
v -7.906529 3.482964 5.396982
v -7.906529 3.482974 0.000000
v -7.906529 3.302686 -5.396982
v -7.906529 3.482964 -5.396982
vt 0.002283 0.091306
vt 0.406220 0.091306
vt 0.643890 0.699714
vt 0.894727 0.699714
vt 0.894727 0.789420
vt 0.643890 0.789420
vt 0.332166 0.809013
vt 0.369290 0.809013
vt 0.332166 0.846137
vt 0.369290 0.846137
vt 0.073245 0.310655
vt 0.894727 0.879127
vt 0.224213 0.310655
vt 0.643890 0.879127
vt 0.898687 0.695755
vt 0.902646 0.789420
vt 0.902646 0.789420
vt 0.898687 0.695755
vt 0.224213 0.403041
vt 0.332166 0.827078
vt 0.369290 0.827078
vt 0.073245 0.403041
vt 0.224213 0.310655
vt 0.406220 0.179708
vt 0.002283 0.179708
vt 0.073245 0.310655
vt 0.073245 0.403041
vt 0.002283 0.179708
vt 0.406220 0.179708
vt 0.224213 0.403041
vt 0.639931 0.695755
vt 0.639931 0.695755
vt 0.635971 0.789420
vt 0.635971 0.789420
vt 0.639931 0.883086
vt 0.639931 0.883086
vt 0.898687 0.883086
vt 0.898687 0.883086
vt 0.894727 0.699714
vt 0.894727 0.789420
vt 0.643890 0.699714
vt 0.643890 0.789420
vt 0.643890 0.879127
vt 0.894727 0.879127
vt 0.375182 0.310655
vt 0.375182 0.403041
vt 0.375182 0.403041
vt 0.406220 0.091306
vt 0.002283 0.091306
vt 0.375182 0.310655
vt 0.073245 0.408084
vt 0.002283 0.184533
vt 0.406220 0.184533
vt 0.224213 0.408084
vt 0.224213 0.516021
vt 0.406220 0.241914
vt 0.002283 0.241914
vt 0.073245 0.468050
vt 0.224213 0.408084
vt 0.002283 0.241914
vt 0.406220 0.241914
vt 0.073245 0.408084
vt 0.073245 0.468050
vt 0.224213 0.516021
vt 0.375182 0.408084
vt 0.375182 0.468050
vt 0.375182 0.468050
vt 0.375182 0.408084
vt 0.073245 0.403041
vt 0.224213 0.403041
vt 0.224213 0.408084
vt 0.073245 0.408084
vt 0.224213 0.403041
vt 0.073245 0.403041
vt 0.073245 0.408084
vt 0.224213 0.408084
vt 0.375182 0.403041
vt 0.375182 0.408084
vt 0.375182 0.408084
vt 0.375182 0.403041
vt 0.406220 0.184533
vt 0.002283 0.184533
vn 0.000000 0.000000 1.000000
vn 0.000000 0.000000 1.000000
vn 0.000000 0.000000 1.000000
vn 0.000000 0.000000 1.000000
vn 0.003320 0.955047 0.296436
vn -0.003320 0.955047 0.296436
vn -0.002549 0.999997 -0.000000
vn 0.002549 0.999997 0.000000
vn 0.000000 0.000000 -1.000000
vn 0.000000 0.000000 -1.000000
vn 0.000000 0.000000 -1.000000
vn 0.000000 0.000000 -1.000000
vn 0.000000 -1.000000 0.000000
vn 0.000000 -1.000000 0.000000
vn 0.000000 -1.000000 0.000000
vn 0.000000 -1.000000 0.000000
vn 1.000000 0.000000 0.000000
vn 1.000000 0.000000 0.000000
vn 1.000000 0.000000 0.000000
vn 1.000000 0.000000 0.000000
vn -1.000000 0.000000 0.000000
vn -1.000000 0.000000 0.000000
vn -1.000000 0.000000 0.000000
vn -1.000000 0.000000 0.000000
vn -0.003320 0.955047 -0.296436
vn 0.003320 0.955047 -0.296436
vn -1.000000 0.000000 0.000000
vn -1.000000 0.000000 0.000000
vn 0.000000 -1.000000 0.000000
vn 0.000000 -1.000000 0.000000
vn 1.000000 0.000000 0.000000
vn 1.000000 0.000000 0.000000
vn 0.999108 0.000000 0.042234
vn 1.000000 0.000000 -0.000000
vn 1.000000 0.000000 -0.000000
vn 0.999108 0.000000 0.042234
vn 0.000000 0.000000 1.000000
vn 0.000000 0.000000 1.000000
vn 0.000000 0.000000 1.000000
vn 0.000000 0.000000 1.000000
vn -1.000000 0.000000 -0.000000
vn -0.999108 0.000000 0.042234
vn -0.999108 0.000000 0.042234
vn -1.000000 0.000000 -0.000000
vn -0.999108 0.000000 -0.042234
vn -0.999108 0.000000 -0.042234
vn 0.000000 0.000000 -1.000000
vn 0.000000 0.000000 -1.000000
vn 0.000000 0.000000 -1.000000
vn 0.000000 0.000000 -1.000000
vn 0.999108 0.000000 -0.042234
vn 0.999108 0.000000 -0.042234
vn 0.035549 -0.993661 -0.106646
vn 0.097842 -0.950931 -0.293526
vn 0.097842 -0.950931 -0.293526
vn 0.038297 -0.992640 -0.114889
vn -0.039938 0.991993 0.119812
vn -0.101472 0.947120 0.304414
vn -0.035549 -0.993661 -0.106646
vn -0.038297 -0.992640 -0.114890
vn 0.039938 0.991993 0.119814
vn -0.097842 -0.950931 -0.293526
vn -0.097842 -0.950931 -0.293526
vn 0.101471 0.947119 0.304415
vn -0.035549 -0.993661 0.106646
vn -0.097842 -0.950931 0.293526
vn -0.097842 -0.950931 0.293526
vn -0.038297 -0.992640 0.114890
vn 0.039938 0.991993 -0.119814
vn 0.101471 0.947120 -0.304415
vn -0.039937 0.991993 -0.119813
vn 0.035549 -0.993661 0.106645
vn 0.038297 -0.992640 0.114889
vn 0.097842 -0.950931 0.293526
vn 0.097842 -0.950931 0.293526
vn -0.101472 0.947120 -0.304415
vn 1.000000 0.000000 0.000000
vn 1.000000 0.000000 0.000000
vn 1.000000 0.000000 0.000000
vn 1.000000 0.000000 0.000000
vn 0.000000 0.000000 1.000000
vn 0.000000 0.000000 1.000000
vn 0.000000 0.000000 1.000000
vn 0.000000 0.000000 1.000000
vn -1.000000 0.000000 0.000000
vn -1.000000 0.000000 0.000000
vn -1.000000 0.000000 0.000000
vn -1.000000 0.000000 0.000000
vn -1.000000 0.000000 0.000000
vn -1.000000 0.000000 0.000000
vn 0.000000 0.000000 -1.000000
vn 0.000000 0.000000 -1.000000
vn 0.000000 0.000000 -1.000000
vn 0.000000 0.000000 -1.000000
vn 1.000000 0.000000 0.000000
vn 1.000000 0.000000 0.000000
vn 1.000000 0.000000 0.000000
vn 1.000000 0.000000 0.000000
vn 1.000000 0.000000 0.000000
vn 1.000000 0.000000 0.000000
vn -1.000000 0.000000 0.000000
vn -1.000000 0.000000 0.000000
vn -1.000000 0.000000 0.000000
vn -1.000000 0.000000 0.000000
vn -1.000000 0.000000 0.000000
vn -1.000000 0.000000 0.000000
vn 1.000000 0.000000 0.000000
vn 1.000000 0.000000 0.000000
vn 0.000000 -1.000000 -0.000002
vn 0.000000 -1.000000 0.000000
vn 0.000000 -1.000000 0.000000
vn 0.000000 -1.000000 -0.000002
vn 0.000000 1.000000 0.000000
vn 0.000000 1.000000 0.000002
vn 0.000000 1.000000 0.000002
vn 0.000000 1.000000 0.000000
vn 0.000000 0.000000 1.000000
vn 0.000000 0.000000 1.000000
vn 0.000000 1.000000 -0.000002
vn 0.000000 1.000000 -0.000002
vn 0.000000 -1.000000 0.000002
vn 0.000000 -1.000000 0.000002
vn 0.000000 0.000000 -1.000000
vn 0.000000 0.000000 -1.000000
vn 0.000000 -1.000000 0.000000
vn 0.000000 -1.000000 -0.000002
vn 0.000000 -1.000000 -0.000002
vn 0.000000 -1.000000 0.000000
vn 0.000000 0.000000 1.000000
vn 0.000000 0.000000 1.000000
vn 0.000000 1.000000 0.000002
vn 0.000000 1.000000 0.000000
vn 0.000000 1.000000 0.000000
vn 0.000000 1.000000 0.000002
vn 0.000000 -1.000000 0.000002
vn 0.000000 -1.000000 0.000002
vn 0.000000 1.000000 -0.000002
vn 0.000000 1.000000 -0.000002
vn 0.000000 0.000000 -1.000000
vn 0.000000 0.000000 -1.000000
f 1/1/1 2/2/2 38/24/3 39/25/4
f 3/3/5 4/4/6 9/5/7 10/6/8
f 41/28/9 42/29/10 8/48/11 7/49/12
f 11/20/13 12/21/14 2/10/15 1/9/16
f 2/11/17 12/13/18 37/19/19 38/22/20
f 11/23/21 1/26/22 39/27/23 40/30/24
f 10/6/8 9/5/7 6/12/25 5/14/26
f 7/45/27 11/23/21 40/30/24 41/46/28
f 7/7/29 8/8/30 12/21/14 11/20/13
f 42/47/31 37/19/19 12/13/18 8/50/32
f 20/15/33 19/16/34 21/17/35 22/18/36
f 23/31/37 20/15/38 22/18/39 24/32/40
f 25/33/41 23/31/42 24/32/43 26/34/44
f 27/35/45 25/33/41 26/34/44 28/36/46
f 28/36/47 29/37/48 30/38/49 27/35/50
f 21/17/35 19/16/34 30/38/51 29/37/52
f 14/39/53 13/40/54 19/16/55 20/15/56
f 9/5/7 4/4/6 22/18/57 21/17/58
f 15/41/59 14/39/53 20/15/56 23/31/60
f 4/4/6 3/3/5 24/32/61 22/18/57
f 16/42/62 15/41/59 23/31/60 25/33/63
f 3/3/5 10/6/8 26/34/64 24/32/61
f 17/43/65 16/42/66 25/33/67 27/35/68
f 10/6/8 5/14/26 28/36/69 26/34/70
f 5/14/26 6/12/25 29/37/71 28/36/69
f 18/44/72 17/43/65 27/35/68 30/38/73
f 13/40/74 18/44/72 30/38/73 19/16/75
f 6/12/25 9/5/7 21/17/76 29/37/71
f 32/51/77 31/54/78 13/55/79 14/58/80
f 33/52/81 32/53/82 14/56/83 15/57/84
f 34/59/85 33/62/86 15/63/87 16/64/88
f 35/65/89 34/59/85 16/64/88 17/66/90
f 17/60/91 18/61/92 36/81/93 35/82/94
f 18/67/95 13/55/79 31/54/78 36/68/96
f 44/69/97 43/70/98 45/71/99 46/72/100
f 39/25/4 38/24/3 32/53/82 33/52/81
f 50/73/101 49/74/102 51/75/103 52/76/104
f 53/77/105 50/73/101 52/76/104 54/78/106
f 35/82/94 36/81/93 42/29/10 41/28/9
f 47/79/107 45/71/99 43/70/98 48/80/108
f 38/22/109 37/19/110 43/70/111 44/69/112
f 31/54/113 32/51/114 46/72/115 45/71/116
f 32/51/82 38/22/3 44/69/117 46/72/118
f 36/68/119 31/54/113 45/71/116 47/79/120
f 37/19/110 42/47/121 48/80/122 43/70/111
f 42/47/10 36/68/93 47/79/123 48/80/124
f 40/30/125 39/27/126 49/74/127 50/73/128
f 39/27/4 33/62/81 51/75/129 49/74/130
f 33/62/131 34/59/132 52/76/133 51/75/134
f 41/46/135 40/30/125 50/73/128 53/77/136
f 34/59/132 35/65/137 54/78/138 52/76/133
f 35/65/94 41/46/9 53/77/139 54/78/140
