# This file uses centimeters as units for non-parametric coordinates.

v -9.326563 -0.000000 6.029060
v 9.289095 -0.000000 5.662174
v -9.326563 13.997846 6.029060
v 9.289095 13.997846 5.662174
v -12.389491 13.997846 -1.635328
v 12.389740 13.997846 -1.707487
v -12.389491 -0.000000 -1.635328
v 12.389740 -0.000000 -1.707487
v -12.389491 13.462377 -1.635328
v -9.326563 13.462377 6.029060
v 9.289095 13.462377 5.662174
v 12.389740 13.462377 -1.707487
v -9.655765 13.462377 6.329840
v 9.635479 13.462377 5.942993
v 9.635479 13.997846 5.942993
v -9.655765 13.997846 6.329840
v -12.835318 13.997846 -1.626382
v 12.835320 13.997846 -1.724878
v 12.835320 13.462377 -1.724878
v -12.835318 13.462377 -1.626382
v -12.389493 6.660722 -1.635328
v -9.326565 6.660722 6.029060
v 9.289093 6.660722 5.662174
v 12.389738 6.660722 -1.707487
v -12.389493 3.297210 -1.635328
v -9.326565 3.297210 6.029060
v 9.289093 3.297210 5.662174
v 12.389738 3.297210 -1.707487
v -12.389491 9.900232 -1.635328
v -9.326563 9.900232 6.029060
v 9.289095 9.900232 5.662174
v 12.389740 9.900232 -1.707487
v -12.389493 9.780859 -1.635328
v -9.326565 9.780859 6.029060
v 9.289093 9.780859 5.662174
v 12.389738 9.780859 -1.707487
v -12.389491 6.542042 -1.635328
v -9.326563 6.542042 6.029060
v 9.289095 6.542042 5.662174
v 12.389740 6.542042 -1.707487
v -12.389493 3.169837 -1.635328
v -9.326565 3.169837 6.029060
v 9.289093 3.169837 5.662174
v 12.389738 3.169837 -1.707487
v -12.763428 6.542042 -1.627825
v -9.602680 6.542042 6.281338
v -9.602682 6.660722 6.281338
v -12.763430 6.660722 -1.627825
v 9.579624 6.542042 5.897709
v 9.579622 6.660722 5.897709
v 12.763466 6.542042 -1.722074
v 12.763464 6.660722 -1.722074
v -12.763430 3.169837 -1.627825
v -9.602682 3.169837 6.281338
v -9.602682 3.297210 6.281338
v -12.763430 3.297210 -1.627825
v 9.579622 3.169837 5.897709
v 9.579622 3.297210 5.897709
v 12.763464 3.169837 -1.722074
v 12.763464 3.297210 -1.722074
v -12.763430 9.780859 -1.627825
v -9.602682 9.780859 6.281338
v -9.602680 9.900232 6.281338
v -12.763428 9.900232 -1.627825
v 9.579622 9.780859 5.897709
v 9.579624 9.900232 5.897709
v 12.763464 9.780859 -1.722074
v 12.763466 9.900232 -1.722074
v 1.952343 13.997846 -6.329841
v 1.952343 13.462377 -6.329841
v 1.963646 13.462377 -6.172704
v 1.963646 9.900232 -6.172704
v 1.954166 9.900232 -6.304502
v 1.954166 9.780859 -6.304502
v 1.963646 9.780859 -6.172704
v 1.963646 6.660722 -6.172704
v 1.954166 6.660722 -6.304502
v 1.954166 6.542042 -6.304502
v 1.963646 6.542042 -6.172704
v 1.963646 3.297210 -6.172704
v 1.954166 3.297210 -6.304502
v 1.954166 3.169837 -6.304502
v 1.963646 3.169837 -6.172704
v 1.963646 -0.000000 -6.172704
v 1.493273 -0.000000 2.696388
v 1.493271 3.169837 2.696388
v 1.483791 3.169837 2.828186
v 1.483791 3.297210 2.828186
v 1.493271 3.297210 2.696388
v 1.493273 6.542042 2.696388
v 1.483793 6.542042 2.828186
v 1.483791 6.660722 2.828186
v 1.493271 6.660722 2.696388
v 1.493271 9.780860 2.696388
v 1.483791 9.780860 2.828186
v 1.483793 9.900232 2.828186
v 1.493273 9.900232 2.696388
v 1.493273 13.462377 2.696388
v 1.481970 13.462377 2.853525
v 1.481970 13.997846 2.853525
v 1.493273 13.997846 2.696388
v 1.963646 13.997846 -6.172704
vt 0.244485 0.702537
vt 0.492514 0.702537
vt 0.492514 0.724266
vt 0.244485 0.724266
vt 0.257617 0.722950
vt 0.503134 0.722950
vt 0.503134 0.745078
vt 0.257617 0.745078
vt 0.257340 0.575745
vt 0.493852 0.575745
vt 0.493852 0.722950
vt 0.257340 0.722950
vt 0.253568 0.557992
vt 0.491951 0.557992
vt 0.491951 0.702537
vt 0.253568 0.702537
vt 0.256231 0.436968
vt 0.500296 0.436968
vt 0.500296 0.441873
vt 0.256231 0.441873
vt 0.245950 0.421722
vt 0.492423 0.421722
vt 0.492423 0.426538
vt 0.245950 0.426538
vt 0.256231 0.297613
vt 0.500296 0.297613
vt 0.500296 0.302876
vt 0.256231 0.302876
vt 0.245950 0.284885
vt 0.492423 0.284885
vt 0.492423 0.290053
vt 0.245950 0.290053
vt 0.257572 0.570812
vt 0.501637 0.570812
vt 0.501637 0.575745
vt 0.257572 0.575745
vt 0.245950 0.553148
vt 0.492423 0.553148
vt 0.492423 0.557992
vt 0.245950 0.557992
vt 0.255999 0.441873
vt 0.492511 0.441873
vt 0.492511 0.570812
vt 0.255999 0.570812
vt 0.253568 0.426538
vt 0.491951 0.426538
vt 0.491951 0.553148
vt 0.253568 0.553148
vt 0.255999 0.302876
vt 0.492511 0.302876
vt 0.492511 0.436968
vt 0.255999 0.436968
vt 0.253568 0.290053
vt 0.491951 0.290053
vt 0.491951 0.421722
vt 0.253568 0.421722
vt 0.255999 0.166620
vt 0.492511 0.166620
vt 0.492511 0.297613
vt 0.255999 0.297613
vt 0.253568 0.156258
vt 0.491951 0.156258
vt 0.491951 0.284885
vt 0.253568 0.284885
vt 0.115903 0.443363
vt 0.099260 0.440342
vt 0.096986 0.427268
vt 0.119085 0.431448
vt 0.116445 0.443750
vt 0.099305 0.440573
vt 0.088222 0.446127
vt 0.082313 0.435745
vt 0.096975 0.427033
vt 0.119748 0.431382
vt 0.087758 0.446605
vt 0.081649 0.435799
vt 0.293958 0.718317
vt 0.249015 0.576149
vt 0.336863 0.580808
vt 0.369873 0.687978
vt 0.293243 0.472879
vt 0.366239 0.503591
vt 0.339214 0.435396
vt 0.306204 0.328226
vt 0.307760 0.328338
vt 0.342193 0.438657
vt 0.335580 0.251009
vt 0.338361 0.247578
vt 0.263298 0.465734
vt 0.263387 0.470150
vt 0.262584 0.220297
vt 0.262411 0.215884
vt 0.218356 0.323567
vt 0.216799 0.323679
vt 0.413633 0.465023
vt 0.489548 0.434684
vt 0.492047 0.437419
vt 0.413707 0.468726
vt 0.456538 0.327514
vt 0.457844 0.327608
vt 0.979608 0.736246
vt 0.496821 0.736246
vt 0.485914 0.250297
vt 0.488247 0.247419
vt 0.412918 0.219585
vt 0.412774 0.215884
vt 0.499148 0.434684
vt 0.575063 0.465023
vt 0.574989 0.468726
vt 0.496649 0.437419
vt 0.496821 0.581097
vt 0.979608 0.581097
vt 0.532158 0.327514
vt 0.530852 0.327608
vt 0.575778 0.219585
vt 0.575922 0.215884
vt 0.502782 0.250297
vt 0.500449 0.247419
vt 0.672161 0.465023
vt 0.748076 0.434684
vt 0.750575 0.437419
vt 0.672235 0.468726
vt 0.715066 0.327514
vt 0.716371 0.327608
vt 0.992186 0.440000
vt 0.497140 0.440000
vt 0.744442 0.250297
vt 0.746775 0.247419
vt 0.671446 0.219585
vt 0.671301 0.215884
vt 0.634282 0.690256
vt 0.710197 0.720595
vt 0.710123 0.724298
vt 0.631783 0.692991
vt 0.497140 0.434831
vt 0.992186 0.434831
vt 0.667292 0.583086
vt 0.665986 0.583180
vt 0.710912 0.475157
vt 0.711056 0.471456
vt 0.637915 0.505869
vt 0.635583 0.502991
vt 0.549173 0.720595
vt 0.625089 0.690256
vt 0.627588 0.692991
vt 0.549248 0.724298
vt 0.592079 0.583086
vt 0.593384 0.583180
vt 0.992186 0.293503
vt 0.497140 0.293503
vt 0.621455 0.505869
vt 0.623788 0.502991
vt 0.548459 0.475157
vt 0.548314 0.471456
vt 0.376567 0.690256
vt 0.452482 0.720595
vt 0.452408 0.724298
vt 0.374068 0.692991
vt 0.497140 0.287955
vt 0.992186 0.287955
vt 0.409577 0.583086
vt 0.408271 0.583180
vt 0.453197 0.475157
vt 0.453342 0.471456
vt 0.380201 0.505869
vt 0.377868 0.502991
vt 0.003586 0.710988
vt 0.510795 0.710988
vt 0.510795 0.733864
vt 0.003586 0.733864
vt 0.018578 0.558803
vt 0.511310 0.558803
vt 0.206138 0.470150
vt 0.206138 0.323679
vt 0.211442 0.323679
vt 0.211442 0.470150
vt 0.206138 0.215884
vt 0.211442 0.215884
vt 0.511310 0.710988
vt 0.018578 0.710988
vt 0.006003 0.415331
vt 0.510878 0.415331
vt 0.510878 0.420402
vt 0.006003 0.420402
vt 0.992186 0.581097
vt 0.497140 0.581097
vt 0.497140 0.575898
vt 0.992186 0.575898
vt 0.979608 0.575898
vt 0.496821 0.575898
vt 0.006003 0.271262
vt 0.510878 0.271262
vt 0.510878 0.276703
vt 0.006003 0.276703
vt 0.006003 0.553703
vt 0.510878 0.553703
vt 0.496821 0.440000
vt 0.979608 0.440000
vt 0.979608 0.434831
vt 0.496821 0.434831
vt 0.496821 0.293503
vt 0.979608 0.293503
vt 0.510878 0.558803
vt 0.006003 0.558803
vt 0.018578 0.420402
vt 0.511310 0.420402
vt 0.511310 0.553703
vt 0.018578 0.553703
vt 0.979608 0.287955
vt 0.496821 0.287955
vt 0.496821 0.149893
vt 0.979608 0.149893
vt 0.146125 0.736246
vt 0.146125 0.581097
vt 0.018578 0.276703
vt 0.511310 0.276703
vt 0.511310 0.415331
vt 0.018578 0.415331
vt 0.018578 0.135837
vt 0.511310 0.135837
vt 0.133554 0.581097
vt 0.133554 0.575898
vt 0.146125 0.575898
vt 0.146125 0.440000
vt 0.133554 0.440000
vt 0.133554 0.434831
vt 0.511310 0.271262
vt 0.018578 0.271262
vt 0.866329 0.135837
vt 0.866329 0.271262
vt 0.879559 0.271262
vt 0.879559 0.276703
vt 0.146125 0.434831
vt 0.146125 0.293503
vt 0.133554 0.293503
vt 0.133554 0.287955
vt 0.146125 0.287955
vt 0.146125 0.149893
vt 0.866329 0.276703
vt 0.866329 0.415331
vt 0.879559 0.415331
vt 0.879559 0.420402
vt 0.866329 0.420402
vt 0.866329 0.553703
vt 0.879559 0.553703
vt 0.879559 0.558803
vt 0.866329 0.558803
vt 0.866329 0.710988
vt 0.882103 0.710988
vt 0.882103 0.733864
vn 0.297945 0.000000 0.954583
vn 0.020049 0.000000 0.999799
vn 0.020049 0.000000 0.999799
vn 0.297945 0.000000 0.954583
vn 0.000000 1.000000 -0.000000
vn 0.000000 1.000000 -0.000000
vn 0.000000 1.000000 -0.000000
vn 0.000000 1.000000 0.000000
vn -0.303104 0.000000 -0.952958
vn -0.003837 0.000000 -0.999993
vn -0.003837 0.000000 -0.999993
vn -0.303104 0.000000 -0.952958
vn 0.000000 -1.000000 0.000000
vn 0.000000 -1.000000 0.000000
vn 0.000000 -1.000000 0.000000
vn 0.000000 -1.000000 0.000000
vn 0.922868 0.000000 0.385118
vn 0.922868 0.000000 0.385118
vn 0.922868 0.000000 0.385118
vn 0.922868 0.000000 0.385118
vn -0.928595 0.000000 0.371095
vn -0.928595 0.000000 0.371095
vn -0.928595 0.000000 0.371095
vn -0.928595 0.000000 0.371095
vn -0.928595 0.000000 0.371095
vn -0.928595 0.000000 0.371095
vn -0.928595 0.000000 0.371095
vn -0.928595 0.000000 0.371095
vn 0.294368 0.000000 0.955692
vn 0.019705 0.000000 0.999806
vn 0.019705 0.000000 0.999806
vn 0.294368 0.000000 0.955692
vn 0.921741 0.000000 0.387805
vn 0.921741 0.000000 0.387805
vn 0.921741 0.000000 0.387805
vn 0.921741 0.000000 0.387805
vn -0.301422 0.000000 -0.953491
vn -0.002912 0.000000 -0.999996
vn -0.002912 0.000000 -0.999996
vn -0.301422 0.000000 -0.953491
vn 0.000000 -1.000000 -0.000002
vn 0.000000 -1.000000 -0.000007
vn 0.000000 -1.000000 -0.000007
vn 0.000000 -1.000000 -0.000000
vn 0.000000 1.000000 0.000000
vn 0.000000 1.000000 0.000002
vn 0.000000 1.000000 0.000001
vn 0.000000 1.000000 0.000001
vn 0.000000 -1.000000 -0.000003
vn 0.000000 -1.000000 -0.000000
vn 0.000000 -1.000000 0.000001
vn 0.000000 -1.000000 -0.000002
vn 0.000000 -1.000000 -0.000002
vn 0.000000 -1.000000 -0.000001
vn 0.000000 -1.000000 -0.000000
vn 0.000000 -1.000000 0.000000
vn 0.000000 1.000000 0.000000
vn 0.000000 1.000000 0.000000
vn 0.000000 1.000000 0.000001
vn 0.000000 1.000000 0.000000
vn -0.928594 -0.000015 0.371097
vn -0.928594 -0.000015 0.371097
vn -0.928594 -0.000015 0.371097
vn -0.928594 -0.000015 0.371097
vn 0.297383 0.000005 0.954758
vn 0.019991 0.000000 0.999800
vn 0.019998 0.000000 0.999800
vn 0.297383 0.000005 0.954758
vn 0.922692 0.000016 0.385538
vn 0.922692 0.000016 0.385538
vn 0.922692 0.000016 0.385538
vn 0.922692 0.000016 0.385538
vn -0.302840 -0.000002 -0.953041
vn -0.003692 -0.000000 -0.999993
vn -0.003692 -0.000000 -0.999993
vn -0.302840 -0.000002 -0.953041
vn -0.928595 0.000000 0.371096
vn -0.928595 0.000000 0.371096
vn -0.928595 0.000000 0.371096
vn -0.928595 0.000000 0.371096
vn 0.297383 0.000000 0.954758
vn 0.019995 0.000000 0.999800
vn 0.019995 0.000000 0.999800
vn 0.297383 0.000000 0.954758
vn 0.922692 0.000000 0.385537
vn 0.922692 0.000000 0.385537
vn 0.922692 0.000000 0.385537
vn 0.922692 0.000000 0.385537
vn -0.302839 0.000000 -0.953042
vn -0.003692 0.000000 -0.999993
vn -0.003692 0.000000 -0.999993
vn -0.302839 0.000000 -0.953042
vn -0.928595 0.000015 0.371096
vn -0.928595 0.000015 0.371096
vn -0.928595 0.000015 0.371096
vn -0.928595 0.000015 0.371096
vn 0.297382 -0.000005 0.954759
vn 0.019998 -0.000000 0.999800
vn 0.019992 -0.000000 0.999800
vn 0.297382 -0.000005 0.954759
vn 0.922693 -0.000015 0.385537
vn 0.922693 -0.000015 0.385537
vn 0.922693 -0.000015 0.385537
vn 0.922693 -0.000015 0.385537
vn -0.302840 0.000002 -0.953041
vn -0.003692 0.000000 -0.999993
vn -0.003692 0.000000 -0.999993
vn -0.302840 0.000002 -0.953041
vn -0.928595 0.000000 0.371095
vn -0.928595 0.000000 0.371095
vn -0.928595 0.000000 0.371095
vn -0.928595 0.000000 0.371095
vn 0.294368 0.000000 0.955692
vn 0.019705 0.000000 0.999806
vn 0.019705 0.000000 0.999806
vn 0.294368 0.000000 0.955692
vn 0.921741 0.000000 0.387805
vn 0.921741 0.000000 0.387805
vn 0.921741 0.000000 0.387805
vn 0.921741 0.000000 0.387805
vn -0.301422 0.000000 -0.953491
vn -0.002912 0.000000 -0.999996
vn -0.002912 0.000000 -0.999996
vn -0.301422 0.000000 -0.953491
vn -0.928595 0.000000 0.371095
vn -0.928595 0.000000 0.371095
vn -0.928595 0.000000 0.371095
vn -0.928595 0.000000 0.371095
vn 0.294368 -0.000000 0.955692
vn 0.019705 -0.000000 0.999806
vn 0.019705 -0.000000 0.999806
vn 0.294368 -0.000000 0.955692
vn 0.921741 -0.000001 0.387805
vn 0.921741 -0.000001 0.387805
vn 0.921741 -0.000001 0.387805
vn 0.921741 -0.000001 0.387805
vn -0.301422 0.000000 -0.953491
vn -0.002912 0.000000 -0.999996
vn -0.002912 0.000000 -0.999996
vn -0.301422 0.000000 -0.953491
vn -0.928595 -0.000000 0.371095
vn -0.928595 -0.000000 0.371095
vn -0.928595 -0.000000 0.371095
vn -0.928595 -0.000000 0.371095
vn 0.294368 0.000000 0.955692
vn 0.019705 0.000000 0.999806
vn 0.019705 0.000000 0.999806
vn 0.294368 0.000000 0.955692
vn 0.921741 0.000001 0.387805
vn 0.921741 0.000001 0.387805
vn 0.921741 0.000001 0.387805
vn 0.921741 0.000001 0.387805
vn -0.301422 -0.000000 -0.953491
vn -0.002912 -0.000000 -0.999996
vn -0.002912 0.000000 -0.999996
vn -0.301422 -0.000000 -0.953491
vn 0.000000 -1.000000 -0.000001
vn 0.000000 -1.000000 0.000001
vn 0.000000 -1.000000 0.000001
vn 0.000000 -1.000000 0.000000
vn -0.000000 1.000000 -0.000000
vn -0.000000 1.000000 0.000001
vn -0.000000 1.000000 0.000000
vn -0.000000 1.000000 -0.000000
vn 0.000000 -1.000000 0.000001
vn 0.000000 -1.000000 0.000001
vn 0.000000 1.000000 0.000002
vn -0.000000 1.000000 0.000001
vn 0.000000 -1.000000 -0.000000
vn 0.000000 -1.000000 -0.000002
vn 0.000000 -1.000000 -0.000001
vn 0.000000 -1.000000 -0.000000
vn 0.000000 1.000000 0.000002
vn 0.000000 1.000000 0.000001
vn 0.000000 1.000000 0.000000
vn 0.000000 1.000000 0.000001
vn 0.000000 1.000000 0.000004
vn -0.000000 1.000000 0.000003
vn 0.000000 -1.000000 -0.000004
vn 0.000000 -1.000000 -0.000003
vn 0.000000 -1.000000 -0.000000
vn 0.000000 -1.000000 -0.000001
vn 0.000000 -1.000000 -0.000000
vn 0.000000 -1.000000 -0.000000
vn 0.000000 1.000000 0.000000
vn 0.000000 1.000000 0.000000
vn 0.000000 1.000000 -0.000000
vn 0.000000 1.000000 0.000000
vn 0.000000 -1.000000 -0.000001
vn 0.000000 -1.000000 -0.000001
vn 0.000000 1.000000 0.000000
vn 0.000000 1.000000 0.000000
vn 0.000000 -1.000000 0.000000
vn -0.000000 -1.000000 -0.000000
vn -0.000000 -1.000000 0.000000
vn 0.000000 -1.000000 0.000000
vn 0.000000 1.000000 -0.000001
vn 0.000000 1.000000 -0.000000
vn 0.000000 1.000000 -0.000000
vn 0.000000 1.000000 -0.000000
vn 0.000000 1.000000 -0.000001
vn 0.000000 1.000000 -0.000001
vn -0.000000 -1.000000 -0.000000
vn 0.000000 -1.000000 -0.000000
vn 0.000000 -1.000000 0.000003
vn 0.000000 -1.000000 0.000001
vn 0.000000 -1.000000 0.000000
vn 0.000000 -1.000000 0.000001
vn 0.000000 1.000000 0.000002
vn 0.000000 1.000000 -0.000001
vn 0.000000 1.000000 -0.000000
vn 0.000000 1.000000 0.000001
vn -0.000000 -1.000000 -0.000002
vn 0.000000 -1.000000 -0.000001
vn 0.000000 1.000000 0.000004
vn 0.000000 1.000000 0.000004
vn -0.000000 -1.000000 -0.000003
vn 0.000000 -1.000000 0.000000
vn 0.000000 -1.000000 -0.000000
vn -0.000000 -1.000000 -0.000001
vn 0.000000 1.000000 -0.000002
vn 0.000000 1.000000 0.000001
vn 0.000000 1.000000 0.000000
vn 0.000000 1.000000 -0.000001
vn 0.000000 1.000000 -0.000003
vn 0.000000 1.000000 -0.000003
vn 0.000000 -1.000000 0.000004
vn 0.000000 -1.000000 0.000004
vn 0.389685 0.000000 -0.920948
vn 0.389685 0.000000 -0.920948
vn 0.393688 0.000000 -0.919244
vn 0.393688 0.000000 -0.919244
vn 0.390309 -0.000003 -0.920684
vn 0.390309 -0.000003 -0.920684
vn 0.393688 0.000000 -0.919244
vn 0.393688 0.000000 -0.919244
vn 0.390309 0.000003 -0.920684
vn 0.390309 0.000003 -0.920684
vn 0.393688 -0.000000 -0.919244
vn 0.393688 -0.000000 -0.919244
vn 0.390309 0.000000 -0.920684
vn 0.390309 0.000000 -0.920684
vn 0.393688 0.000000 -0.919244
vn 0.393688 0.000000 -0.919244
vn 0.000000 -1.000000 0.000000
vn 0.000000 -1.000000 0.000000
vn -0.355571 -0.000000 0.934649
vn -0.355571 -0.000000 0.934649
vn -0.354522 0.000000 0.935048
vn -0.354522 0.000000 0.935048
vn -0.355571 0.000000 0.934649
vn -0.355571 0.000000 0.934649
vn -0.354523 -0.000006 0.935047
vn -0.354523 -0.000006 0.935047
vn -0.355571 0.000000 0.934649
vn -0.355571 0.000000 0.934649
vn -0.354522 0.000006 0.935048
vn -0.354522 0.000006 0.935048
vn -0.355571 0.000000 0.934649
vn -0.355571 0.000000 0.934649
vn -0.354329 0.000000 0.935121
vn -0.354329 0.000000 0.935121
f 13/167/1 99/168/2 100/169/3 16/170/4
f 3/65/5 101/66/6 102/67/7 5/68/8
f 17/173/9 69/174/10 70/175/11 20/176/12
f 7/77/13 84/78/14 85/79/15 1/80/16
f 14/1/17 19/2/18 18/3/19 15/4/20
f 20/5/21 13/6/22 16/7/23 17/8/24
f 29/9/25 30/10/26 10/11/27 9/12/28
f 30/171/29 97/172/30 98/179/31 10/180/32
f 31/13/33 32/14/34 12/15/35 11/16/36
f 9/101/37 71/102/38 72/111/39 29/112/40
f 10/83/41 98/84/42 99/85/43 13/86/44
f 101/66/6 3/65/5 16/69/45 100/70/46
f 5/68/8 102/67/7 69/73/47 17/74/48
f 71/93/49 9/89/50 20/90/51 70/94/52
f 11/87/53 12/91/54 19/92/55 14/88/56
f 6/72/57 4/71/58 15/75/59 18/76/60
f 9/89/50 10/83/41 13/86/44 20/90/51
f 3/65/5 5/68/8 17/74/48 16/69/45
f 45/17/61 46/18/62 47/19/63 48/20/64
f 46/181/65 91/182/66 92/183/67 47/184/68
f 49/21/69 51/22/70 52/23/71 50/24/72
f 48/125/73 77/126/74 78/135/75 45/136/76
f 53/25/77 54/26/78 55/27/79 56/28/80
f 54/191/81 87/192/82 88/193/83 55/194/84
f 57/29/85 59/30/86 60/31/87 58/32/88
f 56/149/89 81/150/90 82/159/91 53/160/92
f 61/33/93 62/34/94 63/35/95 64/36/96
f 62/195/97 95/196/98 96/203/99 63/204/100
f 65/37/101 67/38/102 68/39/103 66/40/104
f 64/185/105 73/186/106 74/187/107 61/188/108
f 21/41/109 22/42/110 34/43/111 33/44/112
f 22/205/113 93/206/114 94/207/115 34/208/116
f 23/45/117 24/46/118 36/47/119 35/48/120
f 33/189/121 75/190/122 76/197/123 21/198/124
f 25/49/125 26/50/126 38/51/127 37/52/128
f 26/215/129 89/216/130 90/217/131 38/218/132
f 27/53/133 28/54/134 40/55/135 39/56/136
f 37/199/137 79/200/138 80/201/139 25/202/140
f 7/57/141 1/58/142 42/59/143 41/60/144
f 1/219/145 85/220/146 86/227/147 42/228/148
f 2/61/149 8/62/150 44/63/151 43/64/152
f 41/209/153 83/210/154 84/211/155 7/212/156
f 37/95/157 38/96/158 46/97/159 45/98/160
f 22/107/161 21/108/162 48/109/163 47/110/164
f 38/96/158 90/99/165 91/100/166 46/97/159
f 93/113/167 22/107/161 47/110/164 92/114/168
f 39/103/169 40/105/170 51/106/171 49/104/172
f 24/115/173 23/117/174 50/118/175 52/116/176
f 21/198/162 76/197/177 77/126/178 48/125/163
f 79/200/179 37/199/157 45/136/160 78/135/180
f 41/119/181 42/120/182 54/121/183 53/122/184
f 26/131/185 25/132/186 56/133/187 55/134/188
f 42/120/182 86/123/189 87/124/190 54/121/183
f 89/137/191 26/131/185 55/134/188 88/138/192
f 43/127/193 44/129/194 59/130/195 57/128/196
f 28/139/197 27/141/198 58/142/199 60/140/200
f 25/202/186 80/201/201 81/150/202 56/149/187
f 83/210/203 41/209/181 53/160/184 82/159/204
f 33/143/205 34/144/206 62/145/207 61/146/208
f 30/155/209 29/156/210 64/157/211 63/158/212
f 34/144/206 94/147/213 95/148/214 62/145/207
f 97/161/215 30/155/209 63/158/212 96/162/216
f 35/151/217 36/153/218 67/154/219 65/152/220
f 32/163/221 31/165/222 66/166/223 68/164/224
f 29/112/210 72/111/225 73/186/226 64/185/211
f 75/190/227 33/189/205 61/188/208 74/187/228
f 69/174/10 18/177/229 19/178/230 70/175/11
f 12/91/54 71/93/49 70/94/52 19/92/55
f 72/111/39 71/102/38 12/213/231 32/214/232
f 73/186/226 72/111/225 32/214/221 68/221/224
f 74/187/107 73/186/106 68/221/233 67/222/234
f 36/223/218 75/190/227 74/187/228 67/222/219
f 76/197/123 75/190/122 36/223/235 24/224/236
f 77/126/178 76/197/177 24/224/173 52/225/176
f 78/135/75 77/126/74 52/225/237 51/226/238
f 40/233/170 79/200/179 78/135/180 51/226/171
f 80/201/139 79/200/138 40/233/239 28/234/240
f 81/150/202 80/201/201 28/234/197 60/235/200
f 82/159/91 81/150/90 60/235/241 59/236/242
f 44/237/194 83/210/203 82/159/204 59/236/195
f 84/211/155 83/210/154 44/237/243 8/238/244
f 85/79/15 84/78/14 8/81/245 2/82/246
f 86/227/147 85/220/146 2/229/247 43/230/248
f 87/124/190 86/123/189 43/127/193 57/128/196
f 88/193/83 87/192/82 57/231/249 58/232/250
f 27/141/198 89/137/191 88/138/192 58/142/199
f 90/217/131 89/216/130 27/239/251 39/240/252
f 91/100/166 90/99/165 39/103/169 49/104/172
f 92/183/67 91/182/66 49/241/253 50/242/254
f 23/117/174 93/113/167 92/114/168 50/118/175
f 94/207/115 93/206/114 23/243/255 35/244/256
f 95/148/214 94/147/213 35/151/217 65/152/220
f 96/203/99 95/196/98 65/245/257 66/246/258
f 31/165/222 97/161/215 96/162/216 66/166/223
f 98/179/31 97/172/30 31/247/259 11/248/260
f 99/85/43 98/84/42 11/87/53 14/88/56
f 100/169/3 99/168/2 14/249/261 15/250/262
f 4/71/58 101/66/6 100/70/46 15/75/59
f 102/67/7 101/66/6 4/71/58 6/72/57
f 69/73/47 102/67/7 6/72/57 18/76/60
