# This file uses centimeters as units for non-parametric coordinates.

v -4.126875 -0.000000 4.126874
v 4.126875 -0.000000 4.126874
v -4.126875 16.604794 4.126874
v 4.126875 16.604794 4.126874
v -4.126875 16.604794 -4.126875
v 4.126875 16.604794 -4.126875
v -4.126875 -0.000000 -4.126875
v 4.126875 -0.000000 -4.126875
v -4.126875 15.969599 -4.126875
v -4.126875 15.969599 4.126874
v 4.126875 15.969599 4.126874
v 4.126875 15.969599 -4.126875
v -4.284012 15.969599 4.284011
v 4.284012 15.969599 4.284011
v 4.284012 16.604794 4.284011
v -4.284012 16.604794 4.284011
v -4.284012 16.604794 -4.284012
v 4.284012 16.604794 -4.284012
v 4.284012 15.969599 -4.284012
v -4.284012 15.969599 -4.284012
v -4.126875 7.901209 -4.126875
v -4.126875 7.901209 4.126874
v 4.126875 7.901209 4.126874
v 4.126875 7.901209 -4.126875
v -4.126875 3.911280 -4.126875
v -4.126875 3.911280 4.126874
v 4.126875 3.911280 4.126874
v 4.126875 3.911280 -4.126875
v -4.126875 11.744043 -4.126875
v -4.126875 11.744043 4.126874
v 4.126875 11.744043 4.126874
v 4.126875 11.744043 -4.126875
v -4.126875 11.602439 -4.126875
v -4.126875 11.602439 4.126874
v 4.126875 11.602439 4.126874
v 4.126875 11.602439 -4.126875
v -4.126875 7.760427 -4.126875
v -4.126875 7.760427 4.126874
v 4.126875 7.760427 4.126874
v 4.126875 7.760427 -4.126875
v -4.126875 3.760185 -4.126875
v -4.126875 3.760184 4.126874
v 4.126875 3.760184 4.126874
v 4.126875 3.760185 -4.126875
v -4.258673 7.760427 -4.258673
v -4.258673 7.760427 4.258673
v -4.258673 7.901209 4.258673
v -4.258673 7.901209 -4.258673
v 4.258673 7.760427 4.258673
v 4.258673 7.901209 4.258673
v 4.258673 7.760427 -4.258673
v 4.258673 7.901209 -4.258673
v -4.258673 3.760185 -4.258673
v -4.258673 3.760184 4.258673
v -4.258673 3.911280 4.258673
v -4.258673 3.911280 -4.258673
v 4.258673 3.760184 4.258673
v 4.258673 3.911280 4.258673
v 4.258673 3.760185 -4.258673
v 4.258673 3.911280 -4.258673
v -4.258673 11.602439 -4.258673
v -4.258673 11.602439 4.258673
v -4.258673 11.744043 4.258673
v -4.258673 11.744043 -4.258673
v 4.258673 11.602439 4.258673
v 4.258673 11.744043 4.258673
v 4.258673 11.602439 -4.258673
v 4.258673 11.744043 -4.258673
vt 0.489890 0.904072
vt 0.362374 0.905583
vt 0.948151 0.284148
vt 0.980195 0.284148
vt 0.980195 0.313898
vt 0.948151 0.313898
vt 0.513405 0.163463
vt 0.545277 0.163463
vt 0.513405 0.193053
vt 0.545277 0.193053
vt 0.863595 0.905583
vt 0.947541 0.283582
vt 0.359739 0.905530
vt 0.980805 0.283582
vt 0.860960 0.905530
vt 0.511523 0.941939
vt 0.991111 0.904072
vt 0.863595 0.940081
vt 0.010302 0.941939
vt 0.362374 0.940081
vt 0.991111 0.938570
vt 0.371566 0.676088
vt 0.854403 0.676088
vt 0.489890 0.938570
vt 0.980805 0.314465
vt 0.947541 0.314465
vt 0.010302 0.907440
vt 0.511523 0.907440
vt 0.854403 0.905583
vt 0.371566 0.905583
vt 0.860960 0.940028
vt 0.359739 0.940028
vt 0.368931 0.676035
vt 0.502331 0.907440
vt 0.499082 0.674577
vt 0.363856 0.459733
vt 0.019494 0.907440
vt 0.862113 0.459733
vt 0.851768 0.676035
vt 0.019494 0.677945
vt 0.981919 0.674577
vt 0.862113 0.467379
vt 0.502331 0.677945
vt 0.363856 0.467379
vt 0.851768 0.905530
vt 0.510041 0.469236
vt 0.981919 0.904072
vt 0.363856 0.242475
vt 0.011784 0.469236
vt 0.862113 0.242475
vt 0.368931 0.905530
vt 0.011784 0.461590
vt 0.499082 0.904072
vt 0.862113 0.250681
vt 0.510041 0.461590
vt 0.363856 0.250681
vt 0.361221 0.459680
vt 0.510041 0.252539
vt 0.491372 0.458222
vt 0.363856 0.668397
vt 0.011784 0.252539
vt 0.862113 0.668397
vt 0.859478 0.459680
vt 0.011784 0.244332
vt 0.989629 0.458222
vt 0.862113 0.676088
vt 0.510041 0.244332
vt 0.363856 0.676088
vt 0.859478 0.467326
vt 0.989629 0.465868
vt 0.491372 0.465868
vt 0.361221 0.467326
vt 0.371566 0.467379
vt 0.854403 0.467379
vt 0.854403 0.668397
vt 0.371566 0.668397
vt 0.510041 0.677945
vt 0.011784 0.677945
vt 0.011784 0.670255
vt 0.510041 0.670255
vt 0.361221 0.242422
vt 0.491372 0.240964
vt 0.989629 0.240964
vt 0.859478 0.242422
vt 0.371566 0.250681
vt 0.854403 0.250681
vt 0.854403 0.459733
vt 0.371566 0.459733
vt 0.502331 0.670255
vt 0.019494 0.670255
vt 0.019494 0.469236
vt 0.502331 0.469236
vt 0.859478 0.250628
vt 0.989629 0.249170
vt 0.491372 0.249170
vt 0.361221 0.250628
vt 0.371566 0.038255
vt 0.854403 0.038255
vt 0.854403 0.242475
vt 0.371566 0.242475
vt 0.502331 0.461590
vt 0.019494 0.461590
vt 0.019494 0.252539
vt 0.502331 0.252539
vt 0.502331 0.244332
vt 0.019494 0.244332
vt 0.019494 0.040112
vt 0.502331 0.040112
vt 0.361221 0.668344
vt 0.859478 0.668344
vt 0.859478 0.676035
vt 0.361221 0.676035
vt 0.368931 0.467326
vt 0.851768 0.467326
vt 0.851768 0.668344
vt 0.368931 0.668344
vt 0.368931 0.250628
vt 0.851768 0.250628
vt 0.851768 0.459680
vt 0.368931 0.459680
vt 0.368931 0.038202
vt 0.851768 0.038202
vt 0.851768 0.242422
vt 0.368931 0.242422
vt 0.491372 0.666886
vt 0.989629 0.666886
vt 0.989629 0.674577
vt 0.491372 0.674577
vt 0.499082 0.465868
vt 0.981919 0.465868
vt 0.981919 0.666886
vt 0.499082 0.666886
vt 0.499082 0.249170
vt 0.981919 0.249170
vt 0.981919 0.458222
vt 0.499082 0.458222
vt 0.499082 0.036744
vt 0.981919 0.036744
vt 0.981919 0.240964
vt 0.499082 0.240964
vn 0.000000 0.000000 1.000000
vn 0.000000 0.000000 1.000000
vn 0.000000 0.000000 1.000000
vn 0.000000 0.000000 1.000000
vn 0.000000 1.000000 0.000000
vn 0.000000 1.000000 0.000000
vn 0.000000 1.000000 -0.000000
vn 0.000000 1.000000 -0.000000
vn 0.000000 0.000000 -1.000000
vn 0.000000 0.000000 -1.000000
vn 0.000000 0.000000 -1.000000
vn 0.000000 0.000000 -1.000000
vn 0.000000 -1.000000 0.000000
vn 0.000000 -1.000000 0.000000
vn 0.000000 -1.000000 0.000000
vn 0.000000 -1.000000 0.000000
vn 1.000000 0.000000 0.000000
vn 1.000000 0.000000 0.000000
vn 1.000000 0.000000 0.000000
vn 1.000000 0.000000 0.000000
vn -1.000000 0.000000 0.000000
vn -1.000000 0.000000 0.000000
vn -1.000000 0.000000 0.000000
vn -1.000000 0.000000 0.000000
vn -1.000000 0.000000 0.000000
vn -1.000000 0.000000 0.000000
vn -1.000000 0.000000 0.000000
vn -1.000000 0.000000 0.000000
vn 0.000000 0.000000 1.000000
vn 0.000000 0.000000 1.000000
vn 0.000000 0.000000 1.000000
vn 0.000000 0.000000 1.000000
vn 1.000000 0.000000 0.000000
vn 1.000000 0.000000 0.000000
vn 1.000000 0.000000 0.000000
vn 1.000000 0.000000 0.000000
vn 0.000000 0.000000 -1.000000
vn 0.000000 0.000000 -1.000000
vn 0.000000 0.000000 -1.000000
vn 0.000000 0.000000 -1.000000
vn 0.000000 -1.000000 0.000000
vn 0.000000 -1.000000 0.000000
vn 0.000000 -1.000000 0.000000
vn 0.000000 -1.000000 0.000000
vn 0.000000 1.000000 0.000001
vn 0.000000 1.000000 0.000001
vn 0.000000 1.000000 -0.000001
vn 0.000000 1.000000 -0.000001
vn 0.000000 -1.000000 -0.000000
vn 0.000000 -1.000000 -0.000000
vn 0.000000 -1.000000 -0.000000
vn 0.000000 -1.000000 -0.000000
vn -1.000000 0.000000 0.000000
vn -1.000000 0.000000 0.000000
vn -1.000000 0.000000 0.000000
vn -1.000000 0.000000 0.000000
vn 0.000000 0.000000 1.000000
vn 0.000000 0.000000 1.000000
vn 0.000000 0.000000 1.000000
vn 0.000000 0.000000 1.000000
vn 1.000000 0.000000 0.000000
vn 1.000000 0.000000 0.000000
vn 1.000000 0.000000 0.000000
vn 1.000000 0.000000 0.000000
vn 0.000000 0.000000 -1.000000
vn 0.000000 0.000000 -1.000000
vn 0.000000 0.000000 -1.000000
vn 0.000000 0.000000 -1.000000
vn -1.000000 0.000000 0.000000
vn -1.000000 0.000000 0.000000
vn -1.000000 0.000000 0.000000
vn -1.000000 0.000000 0.000000
vn 0.000000 0.000000 1.000000
vn 0.000000 0.000000 1.000000
vn 0.000000 0.000000 1.000000
vn 0.000000 0.000000 1.000000
vn 1.000000 0.000000 0.000000
vn 1.000000 0.000000 0.000000
vn 1.000000 0.000000 0.000000
vn 1.000000 0.000000 0.000000
vn 0.000000 0.000000 -1.000000
vn 0.000000 0.000000 -1.000000
vn 0.000000 0.000000 -1.000000
vn 0.000000 0.000000 -1.000000
vn -1.000000 0.000000 0.000000
vn -1.000000 0.000000 0.000000
vn -1.000000 0.000000 0.000000
vn -1.000000 0.000000 0.000000
vn 0.000000 0.000000 1.000000
vn 0.000000 0.000000 1.000000
vn 0.000000 0.000000 1.000000
vn 0.000000 0.000000 1.000000
vn 1.000000 0.000000 0.000000
vn 1.000000 0.000000 0.000000
vn 1.000000 0.000000 0.000000
vn 1.000000 0.000000 0.000000
vn 0.000000 0.000000 -1.000000
vn 0.000000 0.000000 -1.000000
vn 0.000000 0.000000 -1.000000
vn 0.000000 0.000000 -1.000000
vn -1.000000 0.000000 0.000000
vn -1.000000 0.000000 0.000000
vn -1.000000 0.000000 0.000000
vn -1.000000 0.000000 0.000000
vn 0.000000 0.000000 1.000000
vn 0.000000 0.000000 1.000000
vn 0.000000 0.000000 1.000000
vn 0.000000 0.000000 1.000000
vn 1.000000 0.000000 0.000000
vn 1.000000 0.000000 0.000000
vn 1.000000 0.000000 0.000000
vn 1.000000 0.000000 0.000000
vn 0.000000 0.000000 -1.000000
vn 0.000000 0.000000 -1.000000
vn 0.000000 0.000000 -1.000000
vn 0.000000 0.000000 -1.000000
vn -1.000000 0.000000 0.000000
vn -1.000000 0.000000 0.000000
vn -1.000000 0.000000 0.000000
vn -1.000000 0.000000 0.000000
vn 0.000000 0.000000 1.000000
vn 0.000000 0.000000 1.000000
vn 0.000000 0.000000 1.000000
vn 0.000000 0.000000 1.000000
vn 1.000000 0.000000 0.000000
vn 1.000000 0.000000 0.000000
vn 1.000000 0.000000 0.000000
vn 1.000000 0.000000 0.000000
vn 0.000000 0.000000 -1.000000
vn 0.000000 0.000000 -1.000000
vn 0.000000 0.000000 -1.000000
vn 0.000000 0.000000 -1.000000
vn -1.000000 0.000000 0.000000
vn -1.000000 0.000000 0.000000
vn -1.000000 0.000000 0.000000
vn -1.000000 0.000000 0.000000
vn 0.000000 0.000000 1.000000
vn 0.000000 0.000000 1.000000
vn 0.000000 0.000000 1.000000
vn 0.000000 0.000000 1.000000
vn 1.000000 0.000000 0.000000
vn 1.000000 0.000000 0.000000
vn 1.000000 0.000000 0.000000
vn 1.000000 0.000000 0.000000
vn 0.000000 0.000000 -1.000000
vn 0.000000 0.000000 -1.000000
vn 0.000000 0.000000 -1.000000
vn 0.000000 0.000000 -1.000000
vn 0.000000 -1.000000 -0.000002
vn 0.000000 -1.000000 0.000002
vn 0.000000 -1.000000 0.000002
vn 0.000000 -1.000000 -0.000002
vn 0.000000 1.000000 -0.000002
vn 0.000000 1.000000 0.000002
vn 0.000000 1.000000 0.000002
vn 0.000000 1.000000 -0.000002
vn 0.000000 -1.000000 0.000002
vn 0.000000 -1.000000 0.000002
vn 0.000000 1.000000 -0.000002
vn 0.000000 1.000000 -0.000002
vn 0.000000 -1.000000 -0.000002
vn 0.000000 -1.000000 -0.000002
vn 0.000000 1.000000 0.000002
vn 0.000000 1.000000 0.000002
vn -0.000000 -1.000000 0.000001
vn -0.000000 -1.000000 -0.000001
vn -0.000000 -1.000000 -0.000001
vn -0.000000 -1.000000 0.000001
vn 0.000000 1.000000 -0.000000
vn 0.000000 1.000000 0.000000
vn 0.000000 1.000000 0.000000
vn 0.000000 1.000000 -0.000000
vn 0.000000 -1.000000 -0.000001
vn 0.000000 -1.000000 -0.000001
vn 0.000000 1.000000 -0.000000
vn 0.000000 1.000000 -0.000000
vn 0.000000 -1.000000 0.000001
vn 0.000000 -1.000000 0.000001
vn 0.000000 1.000000 0.000000
vn 0.000000 1.000000 0.000000
vn 0.000000 -1.000000 -0.000003
vn 0.000000 -1.000000 0.000003
vn 0.000000 -1.000000 0.000003
vn 0.000000 -1.000000 -0.000003
vn 0.000000 1.000000 -0.000002
vn 0.000000 1.000000 0.000002
vn 0.000000 1.000000 0.000002
vn 0.000000 1.000000 -0.000002
vn 0.000000 -1.000000 0.000003
vn 0.000000 -1.000000 0.000003
vn 0.000000 1.000000 -0.000002
vn 0.000000 1.000000 -0.000002
vn 0.000000 -1.000000 -0.000003
vn 0.000000 -1.000000 -0.000003
vn 0.000000 1.000000 0.000002
vn 0.000000 1.000000 0.000002
f 13/1/1 14/17/2 15/21/3 16/24/4
f 3/3/5 4/4/6 6/5/7 5/6/8
f 17/16/9 18/19/10 19/27/11 20/28/12
f 7/7/13 8/8/14 2/10/15 1/9/16
f 14/2/17 19/11/18 18/18/19 15/20/20
f 20/13/21 13/15/22 16/31/23 17/32/24
f 29/33/25 30/39/26 10/45/27 9/51/28
f 30/35/29 31/41/30 11/47/31 10/53/32
f 31/22/33 32/23/34 12/29/35 11/30/36
f 9/34/37 12/37/38 32/40/39 29/43/40
f 10/53/41 11/47/42 14/17/43 13/1/44
f 4/4/6 3/3/5 16/12/45 15/14/46
f 5/6/8 6/5/7 18/25/47 17/26/48
f 12/37/49 9/34/50 20/28/51 19/27/52
f 11/30/42 12/29/49 19/11/52 14/2/43
f 6/5/7 4/4/6 15/14/46 18/25/47
f 9/51/50 10/45/41 13/15/44 20/13/51
f 3/3/5 5/6/8 17/26/48 16/12/45
f 45/57/53 46/63/54 47/69/55 48/72/56
f 46/59/57 49/65/58 50/70/59 47/71/60
f 49/36/61 51/38/62 52/42/63 50/44/64
f 48/46/65 52/49/66 51/52/67 45/55/68
f 53/81/69 54/84/70 55/93/71 56/96/72
f 54/82/73 57/83/74 58/94/75 55/95/76
f 57/48/77 59/50/78 60/54/79 58/56/80
f 56/58/81 60/61/82 59/64/83 53/67/84
f 61/109/85 62/110/86 63/111/87 64/112/88
f 62/125/89 65/126/90 66/127/91 63/128/92
f 65/60/93 67/62/94 68/66/95 66/68/96
f 64/77/97 68/78/98 67/79/99 61/80/100
f 21/113/101 22/114/102 34/115/103 33/116/104
f 22/129/105 23/130/106 35/131/107 34/132/108
f 23/73/109 24/74/110 36/75/111 35/76/112
f 33/89/113 36/90/114 24/91/115 21/92/116
f 25/117/117 26/118/118 38/119/119 37/120/120
f 26/133/121 27/134/122 39/135/123 38/136/124
f 27/85/125 28/86/126 40/87/127 39/88/128
f 37/101/129 40/102/130 28/103/131 25/104/132
f 7/121/133 1/122/134 42/123/135 41/124/136
f 1/137/137 2/138/138 43/139/139 42/140/140
f 2/97/141 8/98/142 44/99/143 43/100/144
f 41/105/145 44/106/146 8/107/147 7/108/148
f 37/120/149 38/119/150 46/63/151 45/57/152
f 22/114/153 21/113/154 48/72/155 47/69/156
f 38/136/150 39/135/157 49/65/158 46/59/151
f 23/130/159 22/129/153 47/71/156 50/70/160
f 39/88/157 40/87/161 51/38/162 49/36/158
f 24/74/163 23/73/159 50/44/160 52/42/164
f 21/92/154 24/91/163 52/49/164 48/46/155
f 40/102/161 37/101/149 45/55/152 51/52/162
f 41/124/165 42/123/166 54/84/167 53/81/168
f 26/118/169 25/117/170 56/96/171 55/93/172
f 42/140/166 43/139/173 57/83/174 54/82/167
f 27/134/175 26/133/169 55/95/172 58/94/176
f 43/100/173 44/99/177 59/50/178 57/48/174
f 28/86/179 27/85/175 58/56/176 60/54/180
f 25/104/170 28/103/179 60/61/180 56/58/171
f 44/106/177 41/105/165 53/67/168 59/64/178
f 33/116/181 34/115/182 62/110/183 61/109/184
f 30/39/185 29/33/186 64/112/187 63/111/188
f 34/132/182 35/131/189 65/126/190 62/125/183
f 31/41/191 30/35/185 63/128/188 66/127/192
f 35/76/189 36/75/193 67/62/194 65/60/190
f 32/23/195 31/22/191 66/68/192 68/66/196
f 29/43/186 32/40/195 68/78/196 64/77/187
f 36/90/193 33/89/181 61/80/184 67/79/194
