# This file uses centimeters as units for non-parametric coordinates.

v -5.500900 0.000000 3.282425
v 5.500900 0.000000 3.282425
v -5.500900 14.327465 3.282425
v 5.500900 14.327465 3.282425
v -5.500900 14.327465 -3.282425
v 5.500900 14.327465 -3.282425
v -5.500900 0.000000 -3.282425
v 5.500900 0.000000 -3.282425
vt 0.447936 0.041666
vt 0.978841 0.053684
vt 0.485079 0.528602
vt 0.074309 0.936312
vt 0.982777 0.933961
vt 0.558695 0.567866
vt 0.327629 0.714120
vt 0.301151 0.065333
vt 0.327629 0.726846
vt 0.340355 0.726846
vt 0.448317 0.048258
vt 0.448317 0.936312
vt 0.069826 0.041666
vt 0.069826 0.938569
vt 0.340355 0.714120
vt 0.074309 0.048258
vt 0.984560 0.065294
vt 0.310196 0.053684
vt 0.299368 0.934000
vt 0.485079 0.567866
vt 0.978841 0.935161
vt 0.558695 0.528602
vt 0.310196 0.935161
vt 0.447936 0.938569
vn 0.000000 0.000000 1.000000
vn 0.000000 0.000000 1.000000
vn 0.000000 0.000000 1.000000
vn 0.000000 0.000000 1.000000
vn 0.000000 1.000000 0.000000
vn 0.000000 1.000000 0.000000
vn 0.000000 1.000000 0.000000
vn 0.000000 1.000000 0.000000
vn 0.000000 0.000000 -1.000000
vn 0.000000 0.000000 -1.000000
vn 0.000000 0.000000 -1.000000
vn 0.000000 0.000000 -1.000000
vn 0.000000 -1.000000 0.000000
vn 0.000000 -1.000000 0.000000
vn 0.000000 -1.000000 0.000000
vn 0.000000 -1.000000 0.000000
vn 1.000000 0.000000 0.000000
vn 1.000000 0.000000 0.000000
vn 1.000000 0.000000 0.000000
vn 1.000000 0.000000 0.000000
vn -1.000000 0.000000 0.000000
vn -1.000000 0.000000 0.000000
vn -1.000000 0.000000 0.000000
vn -1.000000 0.000000 0.000000
f 1/18/1 2/2/2 4/21/3 3/23/4
f 3/3/5 4/22/6 6/6/7 5/20/8
f 5/5/9 6/19/10 8/8/11 7/17/12
f 7/7/13 8/15/14 2/10/15 1/9/16
f 2/16/17 8/11/18 6/12/19 4/4/20
f 7/13/21 1/1/22 3/24/23 5/14/24
