# This file uses centimeters as units for non-parametric coordinates.

mtllib building_square_1.mtl
v -4.126875 -0.000000 4.126874
v 4.126875 -0.000000 4.126874
v -4.126875 16.604794 4.126874
v 4.126875 16.604794 4.126874
v -4.126875 16.604794 -4.126875
v 4.126875 16.604794 -4.126875
v -4.126875 -0.000000 -4.126875
v 4.126875 -0.000000 -4.126875
v -4.126875 15.969599 -4.126875
v -4.126875 15.969599 4.126874
v 4.126875 15.969599 4.126874
v 4.126875 15.969599 -4.126875
v -4.284012 15.969599 4.284011
v 4.284012 15.969599 4.284011
v 4.284012 16.604794 4.284011
v -4.284012 16.604794 4.284011
v -4.284012 16.604794 -4.284012
v 4.284012 16.604794 -4.284012
v 4.284012 15.969599 -4.284012
v -4.284012 15.969599 -4.284012
v -4.126875 7.901209 -4.126875
v -4.126875 7.901209 4.126874
v 4.126875 7.901209 4.126874
v 4.126875 7.901209 -4.126875
v -4.126875 3.911280 -4.126875
v -4.126875 3.911280 4.126874
v 4.126875 3.911280 4.126874
v 4.126875 3.911280 -4.126875
v -4.126875 11.744043 -4.126875
v -4.126875 11.744043 4.126874
v 4.126875 11.744043 4.126874
v 4.126875 11.744043 -4.126875
v -4.126875 11.602439 -4.126875
v -4.126875 11.602439 4.126874
v 4.126875 11.602439 4.126874
v 4.126875 11.602439 -4.126875
v -4.126875 7.760427 -4.126875
v -4.126875 7.760427 4.126874
v 4.126875 7.760427 4.126874
v 4.126875 7.760427 -4.126875
v -4.126875 3.760185 -4.126875
v -4.126875 3.760184 4.126874
v 4.126875 3.760184 4.126874
v 4.126875 3.760185 -4.126875
v -4.258673 7.760427 -4.258673
v -4.258673 7.760427 4.258673
v -4.258673 7.901209 4.258673
v -4.258673 7.901209 -4.258673
v 4.258673 7.760427 4.258673
v 4.258673 7.901209 4.258673
v 4.258673 7.760427 -4.258673
v 4.258673 7.901209 -4.258673
v -4.258673 3.760185 -4.258673
v -4.258673 3.760184 4.258673
v -4.258673 3.911280 4.258673
v -4.258673 3.911280 -4.258673
v 4.258673 3.760184 4.258673
v 4.258673 3.911280 4.258673
v 4.258673 3.760185 -4.258673
v 4.258673 3.911280 -4.258673
v -4.258673 11.602439 -4.258673
v -4.258673 11.602439 4.258673
v -4.258673 11.744043 4.258673
v -4.258673 11.744043 -4.258673
v 4.258673 11.602439 4.258673
v 4.258673 11.744043 4.258673
v 4.258673 11.602439 -4.258673
v 4.258673 11.744043 -4.258673
vt 0.466021 0.915720
vt 0.334746 0.917297
vt 0.959238 0.280516
vt 0.989222 0.280516
vt 0.989222 0.308742
vt 0.959238 0.308742
vt 0.515846 0.113779
vt 0.538160 0.113779
vt 0.515846 0.136093
vt 0.538160 0.136093
vt 0.850743 0.917297
vt 0.958667 0.279978
vt 0.332033 0.917241
vt 0.989792 0.279978
vt 0.848030 0.917241
vt 0.507407 0.955862
vt 0.982018 0.915720
vt 0.850743 0.953309
vt 0.002751 0.955862
vt 0.334746 0.953309
vt 0.982018 0.951731
vt 0.344209 0.677733
vt 0.841279 0.677733
vt 0.466021 0.951731
vt 0.989792 0.309280
vt 0.958667 0.309280
vt 0.002751 0.919545
vt 0.507407 0.919545
vt 0.841279 0.917297
vt 0.344209 0.917297
vt 0.848030 0.953253
vt 0.332033 0.953253
vt 0.341497 0.677678
vt 0.498152 0.919545
vt 0.475484 0.676156
vt 0.336272 0.451886
vt 0.012006 0.919545
vt 0.849217 0.451886
vt 0.838567 0.677678
vt 0.012006 0.677953
vt 0.972555 0.676156
vt 0.849217 0.459868
vt 0.498152 0.677953
vt 0.336272 0.459868
vt 0.838567 0.917241
vt 0.505915 0.458243
vt 0.972555 0.915720
vt 0.336272 0.225097
vt 0.004243 0.458243
vt 0.849217 0.225097
vt 0.341497 0.917241
vt 0.004243 0.450194
vt 0.475484 0.915720
vt 0.849217 0.233663
vt 0.505915 0.450194
vt 0.336272 0.233663
vt 0.333559 0.451831
vt 0.505915 0.230123
vt 0.467547 0.450309
vt 0.336272 0.669705
vt 0.004243 0.230123
vt 0.849217 0.669705
vt 0.846504 0.451831
vt 0.004243 0.221484
vt 0.980492 0.450309
vt 0.849217 0.677733
vt 0.505915 0.221484
vt 0.336272 0.677733
vt 0.846504 0.459812
vt 0.980492 0.458290
vt 0.467547 0.458290
vt 0.333559 0.459812
vt 0.344209 0.459868
vt 0.841279 0.459868
vt 0.841279 0.669705
vt 0.344209 0.669705
vt 0.505915 0.677953
vt 0.004243 0.677953
vt 0.004243 0.669857
vt 0.505915 0.669857
vt 0.333559 0.225041
vt 0.467547 0.223519
vt 0.980492 0.223519
vt 0.846504 0.225041
vt 0.344209 0.233663
vt 0.841279 0.233663
vt 0.841279 0.451886
vt 0.344209 0.451886
vt 0.498152 0.669857
vt 0.012006 0.669857
vt 0.012006 0.458243
vt 0.498152 0.458243
vt 0.846504 0.233607
vt 0.980492 0.232085
vt 0.467547 0.232085
vt 0.333559 0.233607
vt 0.344209 0.011917
vt 0.841279 0.011917
vt 0.841279 0.225097
vt 0.344209 0.225097
vt 0.498152 0.450194
vt 0.012006 0.450194
vt 0.012006 0.230123
vt 0.498152 0.230123
vt 0.498152 0.221484
vt 0.012006 0.221484
vt 0.012006 0.006500
vt 0.498152 0.006500
vt 0.333559 0.669650
vt 0.846504 0.669650
vt 0.846504 0.677678
vt 0.333559 0.677678
vt 0.341497 0.459812
vt 0.838567 0.459812
vt 0.838567 0.669650
vt 0.341497 0.669650
vt 0.341497 0.233607
vt 0.838567 0.233607
vt 0.838567 0.451831
vt 0.341497 0.451831
vt 0.341497 0.011861
vt 0.838567 0.011861
vt 0.838567 0.225041
vt 0.341497 0.225041
vt 0.467547 0.668128
vt 0.980492 0.668128
vt 0.980492 0.676156
vt 0.467547 0.676156
vt 0.475484 0.458290
vt 0.972555 0.458290
vt 0.972555 0.668128
vt 0.475484 0.668128
vt 0.475484 0.232085
vt 0.972555 0.232085
vt 0.972555 0.450309
vt 0.475484 0.450309
vt 0.475484 0.010339
vt 0.972555 0.010339
vt 0.972555 0.223519
vt 0.475484 0.223519
vn 0.000000 0.000000 1.000000
vn 0.000000 0.000000 1.000000
vn 0.000000 0.000000 1.000000
vn 0.000000 0.000000 1.000000
vn 0.000000 1.000000 0.000000
vn 0.000000 1.000000 0.000000
vn 0.000000 1.000000 -0.000000
vn 0.000000 1.000000 -0.000000
vn 0.000000 0.000000 -1.000000
vn 0.000000 0.000000 -1.000000
vn 0.000000 0.000000 -1.000000
vn 0.000000 0.000000 -1.000000
vn 0.000000 -1.000000 0.000000
vn 0.000000 -1.000000 0.000000
vn 0.000000 -1.000000 0.000000
vn 0.000000 -1.000000 0.000000
vn 1.000000 0.000000 0.000000
vn 1.000000 0.000000 0.000000
vn 1.000000 0.000000 0.000000
vn 1.000000 0.000000 0.000000
vn -1.000000 0.000000 0.000000
vn -1.000000 0.000000 0.000000
vn -1.000000 0.000000 0.000000
vn -1.000000 0.000000 0.000000
vn -1.000000 0.000000 0.000000
vn -1.000000 0.000000 0.000000
vn -1.000000 0.000000 0.000000
vn -1.000000 0.000000 0.000000
vn 0.000000 0.000000 1.000000
vn 0.000000 0.000000 1.000000
vn 0.000000 0.000000 1.000000
vn 0.000000 0.000000 1.000000
vn 1.000000 0.000000 0.000000
vn 1.000000 0.000000 0.000000
vn 1.000000 0.000000 0.000000
vn 1.000000 0.000000 0.000000
vn 0.000000 0.000000 -1.000000
vn 0.000000 0.000000 -1.000000
vn 0.000000 0.000000 -1.000000
vn 0.000000 0.000000 -1.000000
vn 0.000000 -1.000000 0.000001
vn 0.000000 -1.000000 0.000000
vn 0.000000 -1.000000 0.000001
vn 0.000000 -1.000000 0.000000
vn 0.000000 1.000000 0.000003
vn 0.000000 1.000000 0.000000
vn 0.000000 1.000000 -0.000003
vn 0.000000 1.000000 0.000000
vn 0.000000 -1.000000 -0.000001
vn 0.000000 -1.000000 -0.000000
vn 0.000000 -1.000000 -0.000001
vn 0.000000 -1.000000 0.000000
vn -1.000000 0.000000 0.000000
vn -1.000000 0.000000 0.000000
vn -1.000000 0.000000 0.000000
vn -1.000000 0.000000 0.000000
vn 0.000000 0.000000 1.000000
vn 0.000000 0.000000 1.000000
vn 0.000000 0.000000 1.000000
vn 0.000000 0.000000 1.000000
vn 1.000000 0.000000 0.000000
vn 1.000000 0.000000 0.000000
vn 1.000000 0.000000 0.000000
vn 1.000000 0.000000 0.000000
vn 0.000000 0.000000 -1.000000
vn 0.000000 0.000000 -1.000000
vn 0.000000 0.000000 -1.000000
vn 0.000000 0.000000 -1.000000
vn -1.000000 0.000000 0.000000
vn -1.000000 0.000000 0.000000
vn -1.000000 0.000000 0.000000
vn -1.000000 0.000000 0.000000
vn 0.000000 0.000000 1.000000
vn 0.000000 0.000000 1.000000
vn 0.000000 0.000000 1.000000
vn 0.000000 0.000000 1.000000
vn 1.000000 0.000000 0.000000
vn 1.000000 0.000000 0.000000
vn 1.000000 0.000000 0.000000
vn 1.000000 0.000000 0.000000
vn 0.000000 0.000000 -1.000000
vn 0.000000 0.000000 -1.000000
vn 0.000000 0.000000 -1.000000
vn 0.000000 0.000000 -1.000000
vn -1.000000 0.000000 0.000000
vn -1.000000 0.000000 0.000000
vn -1.000000 0.000000 0.000000
vn -1.000000 0.000000 0.000000
vn 0.000000 0.000000 1.000000
vn 0.000000 0.000000 1.000000
vn 0.000000 0.000000 1.000000
vn 0.000000 0.000000 1.000000
vn 1.000000 0.000000 0.000000
vn 1.000000 0.000000 0.000000
vn 1.000000 0.000000 0.000000
vn 1.000000 0.000000 0.000000
vn 0.000000 0.000000 -1.000000
vn 0.000000 0.000000 -1.000000
vn 0.000000 0.000000 -1.000000
vn 0.000000 0.000000 -1.000000
vn -1.000000 0.000000 0.000000
vn -1.000000 0.000000 0.000000
vn -1.000000 0.000000 0.000000
vn -1.000000 0.000000 0.000000
vn 0.000000 0.000000 1.000000
vn 0.000000 0.000000 1.000000
vn 0.000000 0.000000 1.000000
vn 0.000000 0.000000 1.000000
vn 1.000000 0.000000 0.000000
vn 1.000000 0.000000 0.000000
vn 1.000000 0.000000 0.000000
vn 1.000000 0.000000 0.000000
vn 0.000000 0.000000 -1.000000
vn 0.000000 0.000000 -1.000000
vn 0.000000 0.000000 -1.000000
vn 0.000000 0.000000 -1.000000
vn -1.000000 0.000000 0.000000
vn -1.000000 0.000000 0.000000
vn -1.000000 0.000000 0.000000
vn -1.000000 0.000000 0.000000
vn 0.000000 0.000000 1.000000
vn 0.000000 0.000000 1.000000
vn 0.000000 0.000000 1.000000
vn 0.000000 0.000000 1.000000
vn 1.000000 0.000000 0.000000
vn 1.000000 0.000000 0.000000
vn 1.000000 0.000000 0.000000
vn 1.000000 0.000000 0.000000
vn 0.000000 0.000000 -1.000000
vn 0.000000 0.000000 -1.000000
vn 0.000000 0.000000 -1.000000
vn 0.000000 0.000000 -1.000000
vn -1.000000 0.000000 0.000000
vn -1.000000 0.000000 0.000000
vn -1.000000 0.000000 0.000000
vn -1.000000 0.000000 0.000000
vn 0.000000 0.000000 1.000000
vn 0.000000 0.000000 1.000000
vn 0.000000 0.000000 1.000000
vn 0.000000 0.000000 1.000000
vn 1.000000 0.000000 0.000000
vn 1.000000 0.000000 0.000000
vn 1.000000 0.000000 0.000000
vn 1.000000 0.000000 0.000000
vn 0.000000 0.000000 -1.000000
vn 0.000000 0.000000 -1.000000
vn 0.000000 0.000000 -1.000000
vn 0.000000 0.000000 -1.000000
vn 0.000000 -1.000000 -0.000007
vn 0.000000 -1.000000 -0.000003
vn 0.000000 -1.000000 -0.000007
vn 0.000000 -1.000000 -0.000002
vn 0.000000 1.000000 -0.000007
vn 0.000000 1.000000 -0.000003
vn 0.000000 1.000000 -0.000007
vn 0.000000 1.000000 -0.000003
vn 0.000000 -1.000000 0.000007
vn 0.000000 -1.000000 0.000007
vn 0.000000 1.000000 0.000003
vn 0.000000 1.000000 0.000003
vn 0.000000 -1.000000 0.000003
vn 0.000000 -1.000000 0.000002
vn 0.000000 1.000000 0.000007
vn 0.000000 1.000000 0.000007
vn 0.000000 -1.000000 -0.000000
vn -0.000000 -1.000000 0.000000
vn 0.000000 -1.000000 -0.000000
vn -0.000000 -1.000000 0.000000
vn 0.000000 1.000000 -0.000000
vn 0.000000 1.000000 0.000001
vn 0.000000 1.000000 0.000000
vn 0.000000 1.000000 0.000001
vn 0.000000 -1.000000 -0.000000
vn 0.000000 -1.000000 -0.000000
vn 0.000000 1.000000 -0.000001
vn 0.000000 1.000000 -0.000001
vn -0.000000 -1.000000 -0.000000
vn -0.000000 -1.000000 -0.000000
vn 0.000000 1.000000 0.000000
vn 0.000000 1.000000 0.000000
vn 0.000000 -1.000000 -0.000007
vn 0.000000 -1.000000 -0.000001
vn 0.000000 -1.000000 -0.000007
vn 0.000000 -1.000000 -0.000001
vn 0.000000 1.000000 -0.000007
vn 0.000000 1.000000 -0.000002
vn 0.000000 1.000000 -0.000007
vn 0.000000 1.000000 -0.000002
vn 0.000000 -1.000000 0.000007
vn 0.000000 -1.000000 0.000007
vn 0.000000 1.000000 0.000002
vn 0.000000 1.000000 0.000002
vn 0.000000 -1.000000 0.000001
vn 0.000000 -1.000000 0.000001
vn 0.000000 1.000000 0.000007
vn 0.000000 1.000000 0.000007
usemtl lambert2SG
f 13/1/1 14/17/2 16/24/3
f 16/24/3 14/17/2 15/21/4
f 3/3/5 4/4/6 5/6/7
f 5/6/7 4/4/6 6/5/8
f 17/16/9 18/19/10 20/28/11
f 20/28/11 18/19/10 19/27/12
f 7/7/13 8/8/14 1/9/15
f 1/9/15 8/8/14 2/10/16
f 14/2/17 19/11/18 15/20/19
f 15/20/19 19/11/18 18/18/20
f 20/13/21 13/15/22 17/32/23
f 17/32/23 13/15/22 16/31/24
f 29/33/25 30/39/26 9/51/27
f 9/51/27 30/39/26 10/45/28
f 30/35/29 31/41/30 10/53/31
f 10/53/31 31/41/30 11/47/32
f 31/22/33 32/23/34 11/30/35
f 11/30/35 32/23/34 12/29/36
f 9/34/37 12/37/38 29/43/39
f 29/43/39 12/37/38 32/40/40
f 10/53/41 11/47/42 13/1/43
f 13/1/43 11/47/42 14/17/44
f 4/4/6 3/3/5 15/14/45
f 15/14/45 3/3/5 16/12/46
f 5/6/7 6/5/8 17/26/47
f 17/26/47 6/5/8 18/25/48
f 12/37/49 9/34/50 19/27/51
f 19/27/51 9/34/50 20/28/52
f 11/30/42 12/29/49 14/2/44
f 14/2/44 12/29/49 19/11/51
f 6/5/8 4/4/6 18/25/48
f 18/25/48 4/4/6 15/14/45
f 9/51/50 10/45/41 20/13/52
f 20/13/52 10/45/41 13/15/43
f 3/3/5 5/6/7 16/12/46
f 16/12/46 5/6/7 17/26/47
f 45/57/53 46/63/54 48/72/55
f 48/72/55 46/63/54 47/69/56
f 46/59/57 49/65/58 47/71/59
f 47/71/59 49/65/58 50/70/60
f 49/36/61 51/38/62 50/44/63
f 50/44/63 51/38/62 52/42/64
f 48/46/65 52/49/66 45/55/67
f 45/55/67 52/49/66 51/52/68
f 53/81/69 54/84/70 56/96/71
f 56/96/71 54/84/70 55/93/72
f 54/82/73 57/83/74 55/95/75
f 55/95/75 57/83/74 58/94/76
f 57/48/77 59/50/78 58/56/79
f 58/56/79 59/50/78 60/54/80
f 56/58/81 60/61/82 53/67/83
f 53/67/83 60/61/82 59/64/84
f 61/109/85 62/110/86 64/112/87
f 64/112/87 62/110/86 63/111/88
f 62/125/89 65/126/90 63/128/91
f 63/128/91 65/126/90 66/127/92
f 65/60/93 67/62/94 66/68/95
f 66/68/95 67/62/94 68/66/96
f 64/77/97 68/78/98 61/80/99
f 61/80/99 68/78/98 67/79/100
f 21/113/101 22/114/102 33/116/103
f 33/116/103 22/114/102 34/115/104
f 22/129/105 23/130/106 34/132/107
f 34/132/107 23/130/106 35/131/108
f 23/73/109 24/74/110 35/76/111
f 35/76/111 24/74/110 36/75/112
f 33/89/113 36/90/114 21/92/115
f 21/92/115 36/90/114 24/91/116
f 25/117/117 26/118/118 37/120/119
f 37/120/119 26/118/118 38/119/120
f 26/133/121 27/134/122 38/136/123
f 38/136/123 27/134/122 39/135/124
f 27/85/125 28/86/126 39/88/127
f 39/88/127 28/86/126 40/87/128
f 37/101/129 40/102/130 25/104/131
f 25/104/131 40/102/130 28/103/132
f 7/121/133 1/122/134 41/124/135
f 41/124/135 1/122/134 42/123/136
f 1/137/137 2/138/138 42/140/139
f 42/140/139 2/138/138 43/139/140
f 2/97/141 8/98/142 43/100/143
f 43/100/143 8/98/142 44/99/144
f 41/105/145 44/106/146 7/108/147
f 7/108/147 44/106/146 8/107/148
f 37/120/149 38/119/150 45/57/151
f 45/57/151 38/119/150 46/63/152
f 22/114/153 21/113/154 47/69/155
f 47/69/155 21/113/154 48/72/156
f 38/136/150 39/135/157 46/59/152
f 46/59/152 39/135/157 49/65/158
f 23/130/159 22/129/153 50/70/160
f 50/70/160 22/129/153 47/71/155
f 39/88/157 40/87/161 49/36/158
f 49/36/158 40/87/161 51/38/162
f 24/74/163 23/73/159 52/42/164
f 52/42/164 23/73/159 50/44/160
f 21/92/154 24/91/163 48/46/156
f 48/46/156 24/91/163 52/49/164
f 40/102/161 37/101/149 51/52/162
f 51/52/162 37/101/149 45/55/151
f 41/124/165 42/123/166 53/81/167
f 53/81/167 42/123/166 54/84/168
f 26/118/169 25/117/170 55/93/171
f 55/93/171 25/117/170 56/96/172
f 42/140/166 43/139/173 54/82/168
f 54/82/168 43/139/173 57/83/174
f 27/134/175 26/133/169 58/94/176
f 58/94/176 26/133/169 55/95/171
f 43/100/173 44/99/177 57/48/174
f 57/48/174 44/99/177 59/50/178
f 28/86/179 27/85/175 60/54/180
f 60/54/180 27/85/175 58/56/176
f 25/104/170 28/103/179 56/58/172
f 56/58/172 28/103/179 60/61/180
f 44/106/177 41/105/165 59/64/178
f 59/64/178 41/105/165 53/67/167
f 33/116/181 34/115/182 61/109/183
f 61/109/183 34/115/182 62/110/184
f 30/39/185 29/33/186 63/111/187
f 63/111/187 29/33/186 64/112/188
f 34/132/182 35/131/189 62/125/184
f 62/125/184 35/131/189 65/126/190
f 31/41/191 30/35/185 66/127/192
f 66/127/192 30/35/185 63/128/187
f 35/76/189 36/75/193 65/60/190
f 65/60/190 36/75/193 67/62/194
f 32/23/195 31/22/191 68/66/196
f 68/66/196 31/22/191 66/68/192
f 29/43/186 32/40/195 64/77/188
f 64/77/188 32/40/195 68/78/196
f 36/90/193 33/89/181 67/79/194
f 67/79/194 33/89/181 61/80/183
