# This file uses centimeters as units for non-parametric coordinates.

v -4.546021 0.000000 1.786780
v 4.546021 0.000000 1.786780
v -4.546021 3.573560 1.786780
v 4.546021 3.573560 1.786780
v -4.546021 3.573560 -1.786780
v 4.546021 3.573560 -1.786780
v -4.546021 0.000000 -1.786780
v 4.546021 0.000000 -1.786780
vt 0.497421 0.509144
vt 0.980860 0.028535
vt 0.014541 0.013356
vt 0.508252 0.989529
vt 0.016718 0.016204
vt 0.989694 0.495224
vt 0.020864 0.025434
vt 0.987450 0.492106
vt 0.020864 0.485098
vt 0.977448 0.485098
vt 0.988790 0.508991
vt 0.988790 0.989529
vt 0.017190 0.509144
vt 0.017190 0.989376
vt 0.977448 0.025434
vt 0.508252 0.508991
vt 0.016718 0.492106
vt 0.022037 0.028535
vt 0.987450 0.016204
vt 0.014541 0.495224
vt 0.980860 0.486141
vt 0.989694 0.013356
vt 0.022037 0.486141
vt 0.497421 0.989376
vn 0.000000 0.000000 1.000000
vn 0.000000 0.000000 1.000000
vn 0.000000 0.000000 1.000000
vn 0.000000 0.000000 1.000000
vn 0.000000 1.000000 0.000000
vn 0.000000 1.000000 0.000000
vn 0.000000 1.000000 0.000000
vn 0.000000 1.000000 0.000000
vn 0.000000 0.000000 -1.000000
vn 0.000000 0.000000 -1.000000
vn 0.000000 0.000000 -1.000000
vn 0.000000 0.000000 -1.000000
vn 0.000000 -1.000000 0.000000
vn 0.000000 -1.000000 0.000000
vn 0.000000 -1.000000 0.000000
vn 0.000000 -1.000000 0.000000
vn 1.000000 0.000000 0.000000
vn 1.000000 0.000000 0.000000
vn 1.000000 0.000000 0.000000
vn 1.000000 0.000000 0.000000
vn -1.000000 0.000000 0.000000
vn -1.000000 0.000000 0.000000
vn -1.000000 0.000000 0.000000
vn -1.000000 0.000000 0.000000
f 1/18/1 2/2/2 4/21/3 3/23/4
f 3/3/5 4/22/6 6/6/7 5/20/8
f 5/5/9 6/19/10 8/8/11 7/17/12
f 7/7/13 8/15/14 2/10/15 1/9/16
f 2/16/17 8/11/18 6/12/19 4/4/20
f 7/13/21 1/1/22 3/24/23 5/14/24
